  0
SECTION
  2
HEADER
  9
$ACADVER
  1
AC1027
  9
$ACADMAINTVER
 70
105
  9
$DWGCODEPAGE
  3
ANSI_1252
  9
$LASTSAVEDBY
  1
ezdxf
  9
$REQUIREDVERSIONS
160
0
  9
$INSBASE
 10
0.0
 20
0.0
 30
0.0
  9
$EXTMIN
 10
1e+20
 20
1e+20
 30
1e+20
  9
$EXTMAX
 10
-1e+20
 20
-1e+20
 30
-1e+20
  9
$LIMMIN
 10
0.0
 20
0.0
  9
$LIMMAX
 10
420.0
 20
297.0
  9
$ORTHOMODE
 70
0
  9
$REGENMODE
 70
1
  9
$FILLMODE
 70
1
  9
$QTEXTMODE
 70
0
  9
$MIRRTEXT
 70
1
  9
$LTSCALE
 40
1.0
  9
$ATTMODE
 70
1
  9
$TEXTSIZE
 40
2.5
  9
$TRACEWID
 40
1.0
  9
$TEXTSTYLE
  7
Standard
  9
$CLAYER
  8
0
  9
$CELTYPE
  6
ByLayer
  9
$CECOLOR
 62
256
  9
$CELTSCALE
 40
1.0
  9
$DISPSILH
 70
0
  9
$DIMSCALE
 40
1.0
  9
$DIMASZ
 40
2.5
  9
$DIMEXO
 40
0.625
  9
$DIMDLI
 40
3.75
  9
$DIMRND
 40
0.0
  9
$DIMDLE
 40
0.0
  9
$DIMEXE
 40
1.25
  9
$DIMTP
 40
0.0
  9
$DIMTM
 40
0.0
  9
$DIMTXT
 40
2.5
  9
$DIMCEN
 40
2.5
  9
$DIMTSZ
 40
0.0
  9
$DIMTOL
 70
0
  9
$DIMLIM
 70
0
  9
$DIMTIH
 70
0
  9
$DIMTOH
 70
0
  9
$DIMSE1
 70
0
  9
$DIMSE2
 70
0
  9
$DIMTAD
 70
1
  9
$DIMZIN
 70
8
  9
$DIMBLK
  1

  9
$DIMASO
 70
1
  9
$DIMSHO
 70
1
  9
$DIMPOST
  1

  9
$DIMAPOST
  1

  9
$DIMALT
 70
0
  9
$DIMALTD
 70
3
  9
$DIMALTF
 40
0.03937007874
  9
$DIMLFAC
 40
1.0
  9
$DIMTOFL
 70
1
  9
$DIMTVP
 40
0.0
  9
$DIMTIX
 70
0
  9
$DIMSOXD
 70
0
  9
$DIMSAH
 70
0
  9
$DIMBLK1
  1

  9
$DIMBLK2
  1

  9
$DIMSTYLE
  2
ISO-25
  9
$DIMCLRD
 70
0
  9
$DIMCLRE
 70
0
  9
$DIMCLRT
 70
0
  9
$DIMTFAC
 40
1.0
  9
$DIMGAP
 40
0.625
  9
$DIMJUST
 70
0
  9
$DIMSD1
 70
0
  9
$DIMSD2
 70
0
  9
$DIMTOLJ
 70
0
  9
$DIMTZIN
 70
8
  9
$DIMALTZ
 70
0
  9
$DIMALTTZ
 70
0
  9
$DIMUPT
 70
0
  9
$DIMDEC
 70
2
  9
$DIMTDEC
 70
2
  9
$DIMALTU
 70
2
  9
$DIMALTTD
 70
3
  9
$DIMTXSTY
  7
Standard
  9
$DIMAUNIT
 70
0
  9
$DIMADEC
 70
0
  9
$DIMALTRND
 40
0.0
  9
$DIMAZIN
 70
0
  9
$DIMDSEP
 70
44
  9
$DIMATFIT
 70
3
  9
$DIMFRAC
 70
0
  9
$DIMLDRBLK
  1

  9
$DIMLUNIT
 70
2
  9
$DIMLWD
 70
-2
  9
$DIMLWE
 70
-2
  9
$DIMTMOVE
 70
0
  9
$DIMFXL
 40
1.0
  9
$DIMFXLON
 70
0
  9
$DIMJOGANG
 40
0.785398163397
  9
$DIMTFILL
 70
0
  9
$DIMTFILLCLR
 70
0
  9
$DIMARCSYM
 70
0
  9
$DIMLTYPE
  6

  9
$DIMLTEX1
  6

  9
$DIMLTEX2
  6

  9
$DIMTXTDIRECTION
 70
0
  9
$LUNITS
 70
2
  9
$LUPREC
 70
4
  9
$SKETCHINC
 40
1.0
  9
$FILLETRAD
 40
10.0
  9
$AUNITS
 70
0
  9
$AUPREC
 70
2
  9
$MENU
  1
.
  9
$ELEVATION
 40
0.0
  9
$PELEVATION
 40
0.0
  9
$THICKNESS
 40
0.0
  9
$LIMCHECK
 70
0
  9
$CHAMFERA
 40
0.0
  9
$CHAMFERB
 40
0.0
  9
$CHAMFERC
 40
0.0
  9
$CHAMFERD
 40
0.0
  9
$SKPOLY
 70
0
  9
$TDCREATE
 40
2461313.968159722
  9
$TDUCREATE
 40
2458532.153996898
  9
$TDUPDATE
 40
2461313.968159722
  9
$TDUUPDATE
 40
2458532.1544311
  9
$TDINDWG
 40
0.0
  9
$TDUSRTIMER
 40
0.0
  9
$USRTIMER
 70
1
  9
$ANGBASE
 50
0.0
  9
$ANGDIR
 70
0
  9
$PDMODE
 70
0
  9
$PDSIZE
 40
0.0
  9
$PLINEWID
 40
0.0
  9
$SPLFRAME
 70
0
  9
$SPLINETYPE
 70
6
  9
$SPLINESEGS
 70
8
  9
$HANDSEED
  5
34
  9
$SURFTAB1
 70
6
  9
$SURFTAB2
 70
6
  9
$SURFTYPE
 70
6
  9
$SURFU
 70
6
  9
$SURFV
 70
6
  9
$UCSBASE
  2

  9
$UCSNAME
  2

  9
$UCSORG
 10
0.0
 20
0.0
 30
0.0
  9
$UCSXDIR
 10
1.0
 20
0.0
 30
0.0
  9
$UCSYDIR
 10
0.0
 20
1.0
 30
0.0
  9
$UCSORTHOREF
  2

  9
$UCSORTHOVIEW
 70
0
  9
$UCSORGTOP
 10
0.0
 20
0.0
 30
0.0
  9
$UCSORGBOTTOM
 10
0.0
 20
0.0
 30
0.0
  9
$UCSORGLEFT
 10
0.0
 20
0.0
 30
0.0
  9
$UCSORGRIGHT
 10
0.0
 20
0.0
 30
0.0
  9
$UCSORGFRONT
 10
0.0
 20
0.0
 30
0.0
  9
$UCSORGBACK
 10
0.0
 20
0.0
 30
0.0
  9
$PUCSBASE
  2

  9
$PUCSNAME
  2

  9
$PUCSORG
 10
0.0
 20
0.0
 30
0.0
  9
$PUCSXDIR
 10
1.0
 20
0.0
 30
0.0
  9
$PUCSYDIR
 10
0.0
 20
1.0
 30
0.0
  9
$PUCSORTHOREF
  2

  9
$PUCSORTHOVIEW
 70
0
  9
$PUCSORGTOP
 10
0.0
 20
0.0
 30
0.0
  9
$PUCSORGBOTTOM
 10
0.0
 20
0.0
 30
0.0
  9
$PUCSORGLEFT
 10
0.0
 20
0.0
 30
0.0
  9
$PUCSORGRIGHT
 10
0.0
 20
0.0
 30
0.0
  9
$PUCSORGFRONT
 10
0.0
 20
0.0
 30
0.0
  9
$PUCSORGBACK
 10
0.0
 20
0.0
 30
0.0
  9
$USERI1
 70
0
  9
$USERI2
 70
0
  9
$USERI3
 70
0
  9
$USERI4
 70
0
  9
$USERI5
 70
0
  9
$USERR1
 40
0.0
  9
$USERR2
 40
0.0
  9
$USERR3
 40
0.0
  9
$USERR4
 40
0.0
  9
$USERR5
 40
0.0
  9
$WORLDVIEW
 70
1
  9
$SHADEDGE
 70
3
  9
$SHADEDIF
 70
70
  9
$TILEMODE
 70
1
  9
$MAXACTVP
 70
64
  9
$PINSBASE
 10
0.0
 20
0.0
 30
0.0
  9
$PLIMCHECK
 70
0
  9
$PEXTMIN
 10
1e+20
 20
1e+20
 30
1e+20
  9
$PEXTMAX
 10
-1e+20
 20
-1e+20
 30
-1e+20
  9
$PLIMMIN
 10
0.0
 20
0.0
  9
$PLIMMAX
 10
420.0
 20
297.0
  9
$UNITMODE
 70
0
  9
$VISRETAIN
 70
1
  9
$PLINEGEN
 70
0
  9
$PSLTSCALE
 70
1
  9
$TREEDEPTH
 70
3020
  9
$CMLSTYLE
  2
Standard
  9
$CMLJUST
 70
0
  9
$CMLSCALE
 40
20.0
  9
$PROXYGRAPHICS
 70
1
  9
$MEASUREMENT
 70
1
  9
$CELWEIGHT
370
-1
  9
$ENDCAPS
280
0
  9
$JOINSTYLE
280
0
  9
$LWDISPLAY
290
0
  9
$INSUNITS
 70
6
  9
$HYPERLINKBASE
  1

  9
$STYLESHEET
  1

  9
$XEDIT
290
1
  9
$CEPSNTYPE
380
0
  9
$PSTYLEMODE
290
1
  9
$FINGERPRINTGUID
  2
{BDE8CDC5-07ED-42E8-B505-B24A45B94607}
  9
$VERSIONGUID
  2
{86783DFB-A0F5-405E-BC90-CC33274AB723}
  9
$EXTNAMES
290
1
  9
$PSVPSCALE
 40
0.0
  9
$OLESTARTUP
290
0
  9
$SORTENTS
280
127
  9
$INDEXCTL
280
0
  9
$HIDETEXT
280
1
  9
$XCLIPFRAME
280
1
  9
$HALOGAP
280
0
  9
$OBSCOLOR
 70
257
  9
$OBSLTYPE
280
0
  9
$INTERSECTIONDISPLAY
280
0
  9
$INTERSECTIONCOLOR
 70
257
  9
$DIMASSOC
280
2
  9
$PROJECTNAME
  1

  9
$CAMERADISPLAY
290
0
  9
$LENSLENGTH
 40
50.0
  9
$CAMERAHEIGHT
 40
0.0
  9
$STEPSPERSEC
 40
24.0
  9
$STEPSIZE
 40
100.0
  9
$3DDWFPREC
 40
2.0
  9
$PSOLWIDTH
 40
0.005
  9
$PSOLHEIGHT
 40
0.08
  9
$LOFTANG1
 40
1.570796326795
  9
$LOFTANG2
 40
1.570796326795
  9
$LOFTMAG1
 40
0.0
  9
$LOFTMAG2
 40
0.0
  9
$LOFTPARAM
 70
7
  9
$LOFTNORMALS
280
1
  9
$LATITUDE
 40
37.795
  9
$LONGITUDE
 40
-122.394
  9
$NORTHDIRECTION
 40
0.0
  9
$TIMEZONE
 70
-8000
  9
$LIGHTGLYPHDISPLAY
280
1
  9
$TILEMODELIGHTSYNCH
280
1
  9
$CMATERIAL
347
20
  9
$SOLIDHIST
280
0
  9
$SHOWHIST
280
1
  9
$DWFFRAME
280
2
  9
$DGNFRAME
280
2
  9
$REALWORLDSCALE
290
1
  9
$INTERFERECOLOR
 62
256
  9
$CSHADOW
280
0
  9
$SHADOWPLANELOCATION
 40
0.0
  0
ENDSEC
  0
SECTION
  2
CLASSES
  0
CLASS
  1
ACDBDICTIONARYWDFLT
  2
AcDbDictionaryWithDefault
  3
ObjectDBX Classes
 90
0
 91
0
280
0
281
0
  0
CLASS
  1
SUN
  2
AcDbSun
  3
SCENEOE
 90
1153
 91
0
280
0
281
0
  0
CLASS
  1
VISUALSTYLE
  2
AcDbVisualStyle
  3
ObjectDBX Classes
 90
4095
 91
0
280
0
281
0
  0
CLASS
  1
MATERIAL
  2
AcDbMaterial
  3
ObjectDBX Classes
 90
1153
 91
0
280
0
281
0
  0
CLASS
  1
SCALE
  2
AcDbScale
  3
ObjectDBX Classes
 90
1153
 91
0
280
0
281
0
  0
CLASS
  1
TABLESTYLE
  2
AcDbTableStyle
  3
ObjectDBX Classes
 90
4095
 91
0
280
0
281
0
  0
CLASS
  1
MLEADERSTYLE
  2
AcDbMLeaderStyle
  3
ACDB_MLEADERSTYLE_CLASS
 90
4095
 91
0
280
0
281
0
  0
CLASS
  1
DICTIONARYVAR
  2
AcDbDictionaryVar
  3
ObjectDBX Classes
 90
0
 91
0
280
0
281
0
  0
CLASS
  1
CELLSTYLEMAP
  2
AcDbCellStyleMap
  3
ObjectDBX Classes
 90
1152
 91
0
280
0
281
0
  0
CLASS
  1
MENTALRAYRENDERSETTINGS
  2
AcDbMentalRayRenderSettings
  3
SCENEOE
 90
1024
 91
0
280
0
281
0
  0
CLASS
  1
ACDBDETAILVIEWSTYLE
  2
AcDbDetailViewStyle
  3
ObjectDBX Classes
 90
1025
 91
0
280
0
281
0
  0
CLASS
  1
ACDBSECTIONVIEWSTYLE
  2
AcDbSectionViewStyle
  3
ObjectDBX Classes
 90
1025
 91
0
280
0
281
0
  0
CLASS
  1
RASTERVARIABLES
  2
AcDbRasterVariables
  3
ISM
 90
0
 91
0
280
0
281
0
  0
CLASS
  1
ACDBPLACEHOLDER
  2
AcDbPlaceHolder
  3
ObjectDBX Classes
 90
0
 91
0
280
0
281
0
  0
CLASS
  1
LAYOUT
  2
AcDbLayout
  3
ObjectDBX Classes
 90
0
 91
0
280
0
281
0
  0
ENDSEC
  0
SECTION
  2
TABLES
  0
TABLE
  2
VPORT
  5
8
330
0
100
AcDbSymbolTable
 70
1
  0
VPORT
  5
23
330
8
100
AcDbSymbolTableRecord
100
AcDbViewportTableRecord
  2
*Active
 70
0
 10
0.0
 20
0.0
 11
1.0
 21
1.0
 12
0.0
 22
0.0
 13
0.0
 23
0.0
 14
0.5
 24
0.5
 15
0.5
 25
0.5
 16
0.0
 26
0.0
 36
1.0
 17
0.0
 27
0.0
 37
0.0
 40
1000.0
 41
1.34
 42
50.0
 43
0.0
 44
0.0
 50
0.0
 51
0.0
 71
0
 72
1000
 73
1
 74
3
 75
0
 76
0
 77
0
 78
0
281
0
 65
0
146
0.0
  0
ENDTAB
  0
TABLE
  2
LTYPE
  5
2
330
0
100
AcDbSymbolTable
 70
3
  0
LTYPE
  5
24
330
2
100
AcDbSymbolTableRecord
100
AcDbLinetypeTableRecord
  2
ByBlock
 70
0
  3

 72
65
 73
0
 40
0.0
  0
LTYPE
  5
25
330
2
100
AcDbSymbolTableRecord
100
AcDbLinetypeTableRecord
  2
ByLayer
 70
0
  3

 72
65
 73
0
 40
0.0
  0
LTYPE
  5
26
330
2
100
AcDbSymbolTableRecord
100
AcDbLinetypeTableRecord
  2
Continuous
 70
0
  3

 72
65
 73
0
 40
0.0
  0
ENDTAB
  0
TABLE
  2
LAYER
  5
1
330
0
100
AcDbSymbolTable
 70
2
  0
LAYER
  5
27
330
1
100
AcDbSymbolTableRecord
100
AcDbLayerTableRecord
  2
0
 70
0
 62
7
  6
Continuous
370
-3
390
13
347
21
  0
LAYER
  5
28
330
1
100
AcDbSymbolTableRecord
100
AcDbLayerTableRecord
  2
Defpoints
 70
0
 62
7
  6
Continuous
290
0
370
-3
390
13
347
21
  0
ENDTAB
  0
TABLE
  2
STYLE
  5
5
330
0
100
AcDbSymbolTable
 70
1
  0
STYLE
  5
29
330
5
100
AcDbSymbolTableRecord
100
AcDbTextStyleTableRecord
  2
Standard
 70
0
 40
0.0
 41
1.0
 50
0.0
 71
0
 42
2.5
  3
txt
  4

  0
ENDTAB
  0
TABLE
  2
VIEW
  5
7
330
0
100
AcDbSymbolTable
 70
0
  0
ENDTAB
  0
TABLE
  2
UCS
  5
6
330
0
100
AcDbSymbolTable
 70
0
  0
ENDTAB
  0
TABLE
  2
APPID
  5
3
330
0
100
AcDbSymbolTable
 70
3
  0
APPID
  5
2A
330
3
100
AcDbSymbolTableRecord
100
AcDbRegAppTableRecord
  2
ACAD
 70
0
  0
APPID
  5
31
330
3
100
AcDbSymbolTableRecord
100
AcDbRegAppTableRecord
  2
HATCHBACKGROUNDCOLOR
 70
0
  0
APPID
  5
32
330
3
100
AcDbSymbolTableRecord
100
AcDbRegAppTableRecord
  2
EZDXF
 70
0
  0
ENDTAB
  0
TABLE
  2
DIMSTYLE
  5
4
330
0
100
AcDbSymbolTable
 70
1
100
AcDbDimStyleTable
  0
DIMSTYLE
105
2B
330
4
100
AcDbSymbolTableRecord
100
AcDbDimStyleTableRecord
  2
Standard
 70
0
 40
1.0
 41
2.5
 42
0.625
 43
3.75
 44
1.25
 45
0.0
 46
0.0
 47
0.0
 48
0.0
 49
2.5
140
2.5
141
2.5
142
0.0
143
0.03937007874
144
1.0
145
0.0
146
1.0
147
0.625
148
0.0
 69
0
 70
0
 71
0
 72
0
 73
0
 74
0
 75
0
 76
0
 77
1
 78
8
 79
3
170
0
171
3
172
1
173
0
174
0
175
0
176
0
177
0
178
0
179
2
271
2
272
2
273
2
274
3
275
0
276
0
277
2
278
44
279
0
280
0
281
0
282
0
283
0
284
8
285
0
286
0
288
0
289
3
290
0
371
-2
372
-2
  0
ENDTAB
  0
TABLE
  2
BLOCK_RECORD
  5
9
330
0
100
AcDbSymbolTable
 70
2
  0
BLOCK_RECORD
  5
17
330
9
100
AcDbSymbolTableRecord
100
AcDbBlockTableRecord
  2
*Model_Space
340
1A
 70
0
280
1
281
0
  0
BLOCK_RECORD
  5
1B
330
9
100
AcDbSymbolTableRecord
100
AcDbBlockTableRecord
  2
*Paper_Space
340
1E
 70
0
280
1
281
0
  0
ENDTAB
  0
ENDSEC
  0
SECTION
  2
BLOCKS
  0
BLOCK
  5
18
330
17
100
AcDbEntity
  8
0
100
AcDbBlockBegin
  2
*Model_Space
 70
0
 10
0.0
 20
0.0
 30
0.0
  3
*Model_Space
  1

  0
ENDBLK
  5
19
330
17
100
AcDbEntity
  8
0
100
AcDbBlockEnd
  0
BLOCK
  5
1C
330
1B
100
AcDbEntity
  8
0
100
AcDbBlockBegin
  2
*Paper_Space
 70
0
 10
0.0
 20
0.0
 30
0.0
  3
*Paper_Space
  1

  0
ENDBLK
  5
1D
330
1B
100
AcDbEntity
  8
0
100
AcDbBlockEnd
  0
ENDSEC
  0
SECTION
  2
ENTITIES
  0
SPLINE
  5
2F
330
17
100
AcDbEntity
  8
0
100
AcDbSpline
 70
0
 71
3
 72
0
 73
0
 74
239
 11
249.39101256495604
 21
86.61242240298498
 31
0.0
 11
249.34923853758016
 21
86.5973901505025
 31
0.0
 11
249.223940307476
 21
86.55232179600969
 31
0.0
 11
249.01518944395414
 21
86.47730245102403
 31
0.0
 11
248.7231052730231
 21
86.37247364433492
 31
0.0
 11
248.34785494204468
 21
86.23803283900658
 31
0.0
 11
247.8896535081088
 21
86.07423276137787
 31
0.0
 11
247.34876404802253
 21
85.88138054718974
 31
0.0
 11
246.72549778726275
 21
85.6598367113411
 31
0.0
 11
246.02021424473594
 21
85.41001394907974
 31
0.0
 11
245.23332138972816
 21
85.1323757776515
 31
0.0
 11
244.36527580702625
 21
84.82743502855952
 31
0.0
 11
243.41658286584408
 21
84.49575220159846
 31
0.0
 11
242.38779688790947
 21
84.13793369272959
 31
0.0
 11
241.27952130985736
 21
83.75462990863126
 31
0.0
 11
240.0924088349315
 21
83.34653328139427
 31
0.0
 11
238.82716156893395
 21
82.91437619732147
 31
0.0
 11
237.48453113536445
 21
82.45892885413514
 31
0.0
 11
236.06531876477132
 21
81.98099706108576
 31
0.0
 11
234.57037535348093
 21
81.48141999649376
 31
0.0
 11
233.0006014870887
 21
80.96106793714009
 31
0.0
 11
231.35694742436866
 21
80.42083997365229
 31
0.0
 11
229.64041303759203
 21
79.86166172561653
 31
0.0
 11
227.85204770562657
 21
79.28448306958431
 31
0.0
 11
225.9929501566154
 21
78.69027589244487
 31
0.0
 11
224.06426825749153
 21
78.08003188180628
 31
0.0
 11
222.06719874807627
 21
77.45476036408344
 31
0.0
 11
220.00298691800813
 21
76.81548619993532
 31
0.0
 11
217.87292622526905
 21
76.16324774554646
 31
0.0
 11
215.6783578555828
 21
75.49909488701597
 31
0.0
 11
213.4206702224674
 21
74.82408715382132
 31
0.0
 11
211.10129840820656
 21
74.13929191597651
 31
0.0
 11
208.72172354646625
 21
73.44578266812368
 31
0.0
 11
206.28347214770392
 21
72.74463740239895
 31
0.0
 11
203.78811536890186
 21
72.03693707051626
 31
0.0
 11
201.2372682294899
 21
71.32376413413576
 31
0.0
 11
198.6325887756034
 21
70.60620120123932
 31
0.0
 11
195.97577719504548
 21
69.88532974494899
 31
0.0
 11
193.26857488548413
 21
69.16222890000543
 31
0.0
 11
190.5127634785148
 21
68.43797433099182
 31
0.0
 11
187.71016382225488
 21
67.71363716536132
 31
0.0
 11
184.8626349251073
 21
66.99028298341182
 31
0.0
 11
181.97207286324533
 21
66.26897085656991
 31
0.0
 11
179.04040965422155
 21
65.55075242470338
 31
0.0
 11
176.06961209890494
 21
64.83667100268985
 31
0.0
 11
173.06168059370188
 21
64.12776070613683
 31
0.0
 11
170.01864791472457
 21
63.42504558598033
 31
0.0
 11
166.942577975248
 21
62.72953876169089
 31
0.0
 11
163.8355645574411
 21
62.04224154298744
 31
0.0
 11
160.69973001899072
 21
61.364142530303205
 31
0.0
 11
157.53722397485606
 21
60.69621668475854
 31
0.0
 11
154.35022195401436
 21
60.0394243590718
 31
0.0
 11
151.14092403068798
 21
59.394710281670605
 31
0.0
 11
147.91155342919623
 21
58.763002487247086
 31
0.0
 11
144.6643551012515
 21
58.1452111881178
 31
0.0
 11
141.40159427423848
 21
57.54222758199095
 31
0.0
 11
138.1255549687734
 21
56.95492259309485
 31
0.0
 11
134.83853848365524
 21
56.38414554506607
 31
0.0
 11
131.54286184619278
 21
55.83072276551576
 31
0.0
 11
128.24085622582572
 21
55.295456123769256
 31
0.0
 11
124.9348653089629
 21
54.77912150488659
 31
0.0
 11
121.62724363303235
 21
54.282467224700504
 31
0.0
 11
118.32035487788549
 21
53.806212392231274
 31
0.0
 11
115.016570112913
 21
53.35104522743358
 31
0.0
 11
111.71826599851855
 21
52.91762134377786
 31
0.0
 11
108.42782294095059
 21
52.50656200664605
 31
0.0
 11
105.14762319991124
 21
52.118452379908675
 31
0.0
 11
101.88004894883613
 21
51.75383977432728
 31
0.0
 11
98.5816043153634
 21
51.41462356377902
 31
0.0
 11
95.29269671792761
 21
51.1111867381533
 31
0.0
 11
92.0225176652723
 21
50.844295428317245
 31
0.0
 11
88.77365837001655
 21
50.61407734382718
 31
0.0
 11
85.54870517209561
 21
50.420580700915934
 31
0.0
 11
82.35023618098535
 21
50.26377372229949
 31
0.0
 11
79.18081784190984
 21
50.14354437903319
 31
0.0
 11
76.04300143984858
 21
50.05970038989068
 31
0.0
 11
72.93931955636393
 21
50.01196949260923
 31
0.0
 11
69.87228249531381
 21
50.0
 31
0.0
 11
66.84437469438133
 21
50.023361652374675
 31
0.0
 11
63.85805114002434
 21
50.081546776007286
 31
0.0
 11
60.9157338039101
 21
50.17397175544864
 31
0.0
 11
58.01980811914324
 21
50.299978825462276
 31
0.0
 11
55.17261951461164
 21
50.45883818617686
 31
0.0
 11
52.37647002556387
 21
50.64975044277239
 31
0.0
 11
49.63361499809214
 21
50.87184936866235
 31
0.0
 11
46.94625990453186
 21
51.12420498872432
 31
0.0
 11
44.31655728591248
 21
51.40582697669254
 31
0.0
 11
41.74660383651281
 21
51.715668358383155
 31
0.0
 11
39.2384376443056
 21
52.05262950999925
 31
0.0
 11
36.794035599635976
 21
52.415562438382885
 31
0.0
 11
34.41531098288819
 21
52.803275327767736
 31
0.0
 11
32.10411124017558
 21
53.21453733535964
 31
0.0
 11
29.86221595426604
 21
53.648083615953624
 31
0.0
 11
27.691335016052967
 21
54.102620553804655
 31
0.0
 11
25.593106999927087
 21
54.576831178119846
 31
0.0
 11
23.569097744425356
 21
55.0693807368508
 31
0.0
 11
21.62079913755424
 21
55.578922401946905
 31
0.0
 11
19.749628104236443
 21
56.10410307789702
 31
0.0
 11
17.956925791434514
 21
56.64356928424792
 31
0.0
 11
16.24395694469151
 21
57.19597308185004
 31
0.0
 11
14.611909468117734
 21
57.75997801185305
 31
0.0
 11
13.061894158269743
 21
58.334265015956795
 31
0.0
 11
11.594944600929553
 21
58.91753830612412
 31
0.0
 11
10.212017218520982
 21
59.50853115187786
 31
0.0
 11
8.913991454807576
 21
60.106011553438314
 31
0.0
 11
7.701670082620123
 21
60.708787769304855
 31
0.0
 11
6.575779619668477
 21
61.315713667444705
 31
0.0
 11
5.536970837012527
 21
61.92569387001727
 31
0.0
 11
4.585819344504467
 21
62.53768866252841
 31
0.0
 11
3.7228262374711734
 21
63.150718639468465
 31
0.0
 11
2.948418789081277
 21
63.76386905983208
 31
0.0
 11
2.2629511732324064
 21
64.37629388743764
 31
0.0
 11
1.6667052033933123
 21
64.98721949264979
 31
0.0
 11
1.1598910736351973
 21
65.59594799394782
 31
0.0
 11
0.7426480890738716
 21
66.20186021976446
 31
0.0
 11
0.41504537410579934
 21
66.80441827313129
 31
0.0
 11
0.17708254814082697
 21
67.40316768389442
 31
0.0
 11
0.028690359993494556
 21
67.99773913559451
 31
0.0
 11
-0.03026872632562356
 21
68.58784975652239
 31
0.0
 11
0.0
 21
69.17330396695365
 31
0.0
 11
0.11838614832481703
 21
69.74745829999898
 31
0.0
 11
0.3237147425631368
 21
70.30372256810652
 31
0.0
 11
0.6155867910708106
 21
70.8420608658833
 31
0.0
 11
0.9935420998946621
 21
71.36245590036901
 31
0.0
 11
1.4570600733709538
 21
71.86490902219789
 31
0.0
 11
2.005560676065625
 21
72.34944037741268
 31
0.0
 11
2.6384055500416066
 21
72.81608917518332
 31
0.0
 11
3.354899279637671
 21
73.26491406510357
 31
0.0
 11
4.154290794242973
 21
73.69599361622267
 31
0.0
 11
5.035774897971424
 21
74.10942688852549
 31
0.0
 11
5.998493913701729
 21
74.5053340862174
 31
0.0
 11
7.041539427669979
 21
74.88385728090967
 31
0.0
 11
8.163954119698605
 21
75.2451611916486
 31
0.0
 11
9.364733663233277
 21
75.58943400769837
 31
0.0
 11
10.64282867864817
 21
75.9168882390814
 31
0.0
 11
11.99714672278064
 21
76.22776157911166
 31
0.0
 11
13.426554297374805
 21
76.52231776253298
 31
0.0
 11
14.92987885905319
 21
76.80084740240379
 31
0.0
 11
16.50591081359799
 21
77.06366878855768
 31
0.0
 11
18.153405477706887
 21
77.31112863032186
 31
0.0
 11
19.87108499198656
 21
77.5436027261968
 31
0.0
 11
21.657640169754817
 21
77.76149654339252
 31
0.0
 11
23.511732267225984
 21
77.96524569048412
 31
0.0
 11
25.431994661844353
 21
78.15531626698834
 31
0.0
 11
27.41703442688732
 21
78.3322050743773
 31
0.0
 11
29.465433791969733
 21
78.4964396739293
 31
0.0
 11
31.575751480718772
 21
78.64857827786807
 31
0.0
 11
33.74652391863744
 21
78.78920946145436
 31
0.0
 11
35.97626630600529
 21
78.91895168506147
 31
0.0
 11
38.26347355255709
 21
79.03845261677863
 31
0.0
 11
40.60662107260349
 21
79.14838824773526
 31
0.0
 11
43.004165441188874
 21
79.24946179410937
 31
0.0
 11
45.4545449137905
 21
79.34240238166532
 31
0.0
 11
47.95617981392484
 21
79.42796351063998
 31
0.0
 11
50.50747279481517
 21
79.50692130084808
 31
0.0
 11
53.1068089829611
 21
79.58007251898816
 31
0.0
 11
55.752556013016125
 21
79.64823239227826
 31
0.0
 11
58.44306396479584
 21
79.7122322147172
 31
0.0
 11
61.17666521449252
 21
79.77291675442927
 31
0.0
 11
63.95167421323821
 21
79.83114147268336
 31
0.0
 11
66.76638720702869
 21
79.88776956726241
 31
0.0
 11
69.6190819126786
 21
79.94366885486674
 31
0.0
 11
72.50801716491837
 21
79.99970850914615
 31
0.0
 11
75.43143254996052
 21
80.05675567274423
 31
0.0
 11
78.38754804085454
 21
80.11567196338338
 31
0.0
 11
81.37456364972118
 21
80.17730989549706
 31
0.0
 11
84.39065911151125
 21
80.24250924020848
 31
0.0
 11
87.43399361328558
 21
80.31209334754234
 31
0.0
 11
90.50270558217092
 21
80.38686545562209
 31
0.0
 11
93.59491254413132
 21
80.46760501223653
 31
0.0
 11
96.70871106452402
 21
80.55506403454355
 31
0.0
 11
99.84878859452289
 21
80.65033553767196
 31
0.0
 11
103.05201229225672
 21
80.74995911703112
 31
0.0
 11
106.27097160549037
 21
80.84700279678086
 31
0.0
 11
109.50350268470797
 21
80.94191392996039
 31
0.0
 11
112.74742787357557
 21
81.03512454540925
 31
0.0
 11
116.00055698598041
 21
81.12704914689412
 31
0.0
 11
119.26068863019351
 21
81.21808265711229
 31
0.0
 11
122.52561157772318
 21
81.30859852167113
 31
0.0
 11
125.79310617397071
 21
81.39894698645514
 31
0.0
 11
129.0609457874101
 21
81.48945355999001
 31
0.0
 11
132.326898293683
 21
81.58041767051868
 31
0.0
 11
135.58872759074322
 21
81.67211152553944
 31
0.0
 11
138.84419514099537
 21
81.76477917954206
 31
0.0
 11
142.09106153626155
 21
81.8586358136389
 31
0.0
 11
145.32708808136664
 21
81.95386722874461
 31
0.0
 11
148.55003839216448
 21
82.0506295519358
 31
0.0
 11
151.7576800039282
 21
82.14904915363854
 31
0.0
 11
154.94778598618956
 21
82.24922277137308
 31
0.0
 11
158.11813656034136
 21
82.351217833947
 31
0.0
 11
161.26652071658825
 21
82.45507297825239
 31
0.0
 11
164.39073782716034
 21
82.56079874920519
 31
0.0
 11
167.4885992530616
 21
82.6683784718827
 31
0.0
 11
170.5579299420157
 21
82.77776928357976
 31
0.0
 11
173.5965700156843
 21
82.88890331233117
 31
0.0
 11
176.60237634465045
 21
83.00168898744388
 31
0.0
 11
179.57322411008337
 21
83.11601246675602
 31
0.0
 11
182.50700835141345
 21
83.23173916469838
 31
0.0
 11
185.40164549974105
 21
83.34871536477712
 31
0.0
 11
188.25507489707218
 21
83.46676989982964
 31
0.0
 11
191.0652603018086
 21
83.58571588332231
 31
0.0
 11
193.83019138121176
 21
83.70535247506122
 31
0.0
 11
196.54788519180497
 21
83.82546666496543
 31
0.0
 11
199.21638764886697
 21
83.9458350590009
 31
0.0
 11
201.83377498630526
 21
84.06622565198322
 31
0.0
 11
204.39815520826508
 21
84.18639957271637
 31
0.0
 11
206.90766953384025
 21
84.30611278783178
 31
0.0
 11
209.36049383619584
 21
84.4251177517111
 31
0.0
 11
211.75484007729239
 21
84.54316499100544
 31
0.0
 11
214.08895773922353
 21
84.66000461348376
 31
0.0
 11
216.3611352529379
 21
84.7753877322391
 31
0.0
 11
218.569701424826
 21
84.88906779763651
 31
0.0
 11
220.71302686131236
 21
85.00080183078144
 31
0.0
 11
222.7895253912079
 21
85.11035155370503
 31
0.0
 11
224.7976554851632
 21
85.21748441288732
 31
0.0
 11
226.73592167111428
 21
85.32197449415065
 31
0.0
 11
228.60287594415223
 21
85.42360332833853
 31
0.0
 11
230.3971191687704
 21
85.52216058853443
 31
0.0
 11
232.117302470971
 21
85.61744468085254
 31
0.0
 11
233.76212861724403
 21
85.70926323203754
 31
0.0
 11
235.3303533769819
 21
85.7974334782273
 31
0.0
 11
236.82078686447144
 21
85.88178256025033
 31
0.0
 11
238.23229485621397
 21
85.96214773173905
 31
0.0
 11
239.563800078978
 21
86.03837648713005
 31
0.0
 11
240.81428346369316
 21
86.11032661728773
 31
0.0
 11
241.98278536005134
 21
86.17786620102154
 31
0.0
 11
243.06840670650254
 21
86.2408735411658
 31
0.0
 11
244.07031015021906
 21
86.29923705415155
 31
0.0
 11
244.98772111155614
 21
86.35285512212376
 31
0.0
 11
245.81992878756586
 21
86.40163591664164
 31
0.0
 11
246.56628708921917
 21
86.4454972028521
 31
0.0
 11
247.22621550716272
 21
86.48436613274593
 31
0.0
 11
247.79919990108013
 21
86.51817903570381
 31
0.0
 11
248.28479320803825
 21
86.54688121401617
 31
0.0
 11
248.68261606557306
 21
86.57042675043317
 31
0.0
 11
248.99235734570658
 21
86.58877833406872
 31
0.0
 11
249.2137745965741
 21
86.60190711016779
 31
0.0
 11
249.34669438887738
 21
86.60979255834987
 31
0.0
 11
249.39101256495604
 21
86.61242240298498
 31
0.0
  0
LWPOLYLINE
  5
30
330
17
100
AcDbEntity
  8
0
100
AcDbPolyline
 90
4
 70
1
 10
-1250.0
 20
0.0
 10
2750.0
 20
0.0
 10
2750.0
 20
1500.0
 10
-1250.0
 20
1500.0
  0
ENDSEC
  0
SECTION
  2
OBJECTS
  0
DICTIONARY
  5
A
330
0
100
AcDbDictionary
281
1
  3
ACAD_COLOR
350
B
  3
ACAD_GROUP
350
C
  3
ACAD_LAYOUT
350
D
  3
ACAD_MATERIAL
350
E
  3
ACAD_MLEADERSTYLE
350
F
  3
ACAD_MLINESTYLE
350
10
  3
ACAD_PLOTSETTINGS
350
11
  3
ACAD_PLOTSTYLENAME
350
12
  3
ACAD_SCALELIST
350
14
  3
ACAD_TABLESTYLE
350
15
  3
ACAD_VISUALSTYLE
350
16
  3
EZDXF_META
350
2D
  0
DICTIONARY
  5
B
330
A
100
AcDbDictionary
281
1
  0
DICTIONARY
  5
C
330
A
100
AcDbDictionary
281
1
  0
DICTIONARY
  5
D
330
A
100
AcDbDictionary
281
1
  3
Model
350
1A
  3
Layout1
350
1E
  0
DICTIONARY
  5
E
330
A
100
AcDbDictionary
281
1
  3
ByBlock
350
1F
  3
ByLayer
350
20
  3
Global
350
21
  0
DICTIONARY
  5
F
330
A
100
AcDbDictionary
281
1
  3
Standard
350
2C
  0
DICTIONARY
  5
10
330
A
100
AcDbDictionary
281
1
  3
Standard
350
22
  0
DICTIONARY
  5
11
330
A
100
AcDbDictionary
281
1
  0
ACDBDICTIONARYWDFLT
  5
12
330
A
100
AcDbDictionary
281
1
  3
Normal
350
13
100
AcDbDictionaryWithDefault
340
13
  0
ACDBPLACEHOLDER
  5
13
330
12
  0
DICTIONARY
  5
14
330
A
100
AcDbDictionary
281
1
  0
DICTIONARY
  5
15
330
A
100
AcDbDictionary
281
1
  0
DICTIONARY
  5
16
330
A
100
AcDbDictionary
281
1
  0
LAYOUT
  5
1A
330
D
100
AcDbPlotSettings
  1

  4
A3
  6

 40
7.5
 41
20.0
 42
7.5
 43
20.0
 44
420.0
 45
297.0
 46
0.0
 47
0.0
 48
0.0
 49
0.0
140
0.0
141
0.0
142
1.0
143
1.0
 70
1024
 72
1
 73
0
 74
5
  7

 75
16
 76
0
 77
2
 78
300
147
1.0
148
0.0
149
0.0
100
AcDbLayout
  1
Model
 70
1
 71
0
 10
0.0
 20
0.0
 11
420.0
 21
297.0
 12
0.0
 22
0.0
 32
0.0
 14
1e+20
 24
1e+20
 34
1e+20
 15
-1e+20
 25
-1e+20
 35
-1e+20
146
0.0
 13
0.0
 23
0.0
 33
0.0
 16
1.0
 26
0.0
 36
0.0
 17
0.0
 27
1.0
 37
0.0
 76
1
330
17
  0
LAYOUT
  5
1E
330
D
100
AcDbPlotSettings
  1

  4
A3
  6

 40
7.5
 41
20.0
 42
7.5
 43
20.0
 44
420.0
 45
297.0
 46
0.0
 47
0.0
 48
0.0
 49
0.0
140
0.0
141
0.0
142
1.0
143
1.0
 70
0
 72
1
 73
0
 74
5
  7

 75
16
 76
0
 77
2
 78
300
147
1.0
148
0.0
149
0.0
100
AcDbLayout
  1
Layout1
 70
1
 71
1
 10
0.0
 20
0.0
 11
420.0
 21
297.0
 12
0.0
 22
0.0
 32
0.0
 14
1e+20
 24
1e+20
 34
1e+20
 15
-1e+20
 25
-1e+20
 35
-1e+20
146
0.0
 13
0.0
 23
0.0
 33
0.0
 16
1.0
 26
0.0
 36
0.0
 17
0.0
 27
1.0
 37
0.0
 76
1
330
1B
  0
MATERIAL
  5
1F
102
{ACAD_REACTORS
330
E
102
}
330
E
100
AcDbMaterial
  1
ByBlock
  2

 70
0
 40
1.0
 71
1
 41
1.0
 91
-1023410177
 42
1.0
 72
1
  3

 73
1
 74
1
 75
1
 44
0.5
 73
0
 45
1.0
 46
1.0
 77
1
  4

 78
1
 79
1
170
1
 48
1.0
171
1
  6

172
1
173
1
174
1
140
1.0
141
1.0
175
1
  7

176
1
177
1
178
1
143
1.0
179
1
  8

270
1
271
1
272
1
145
1.0
146
1.0
273
1
  9

274
1
275
1
276
1
 42
1.0
 72
1
  3

 73
1
 74
1
 75
1
 94
63
  0
MATERIAL
  5
20
102
{ACAD_REACTORS
330
E
102
}
330
E
100
AcDbMaterial
  1
ByLayer
  2

 70
0
 40
1.0
 71
1
 41
1.0
 91
-1023410177
 42
1.0
 72
1
  3

 73
1
 74
1
 75
1
 44
0.5
 73
0
 45
1.0
 46
1.0
 77
1
  4

 78
1
 79
1
170
1
 48
1.0
171
1
  6

172
1
173
1
174
1
140
1.0
141
1.0
175
1
  7

176
1
177
1
178
1
143
1.0
179
1
  8

270
1
271
1
272
1
145
1.0
146
1.0
273
1
  9

274
1
275
1
276
1
 42
1.0
 72
1
  3

 73
1
 74
1
 75
1
 94
63
  0
MATERIAL
  5
21
102
{ACAD_REACTORS
330
E
102
}
330
E
100
AcDbMaterial
  1
Global
  2

 70
0
 40
1.0
 71
1
 41
1.0
 91
-1023410177
 42
1.0
 72
1
  3

 73
1
 74
1
 75
1
 44
0.5
 73
0
 45
1.0
 46
1.0
 77
1
  4

 78
1
 79
1
170
1
 48
1.0
171
1
  6

172
1
173
1
174
1
140
1.0
141
1.0
175
1
  7

176
1
177
1
178
1
143
1.0
179
1
  8

270
1
271
1
272
1
145
1.0
146
1.0
273
1
  9

274
1
275
1
276
1
 42
1.0
 72
1
  3

 73
1
 74
1
 75
1
 94
63
  0
MLINESTYLE
  5
22
102
{ACAD_REACTORS
330
10
102
}
330
10
100
AcDbMlineStyle
  2
Standard
 70
0
  3

 62
256
 51
90.0
 52
90.0
 71
2
 49
0.5
 62
256
  6
BYLAYER
 49
-0.5
 62
256
  6
BYLAYER
  0
MLEADERSTYLE
  5
2C
102
{ACAD_REACTORS
330
F
102
}
330
F
100
AcDbMLeaderStyle
179
2
170
2
171
1
172
0
 90
2
 40
0.0
 41
0.0
173
1
 91
-1056964608
 92
-2
290
1
 42
2.0
291
1
 43
8.0
  3
Standard
 44
4.0
300

342
29
174
1
175
1
176
0
178
1
 93
-1056964608
 45
4.0
292
0
297
0
 46
4.0
 94
-1056964608
 47
1.0
 49
1.0
140
1.0
294
1
141
0.0
177
0
142
1.0
295
0
296
0
143
3.75
271
0
272
9
273
9
  0
DICTIONARY
  5
2D
330
A
100
AcDbDictionary
280
1
281
1
  3
CREATED_BY_EZDXF
350
2E
  3
WRITTEN_BY_EZDXF
350
33
  0
DICTIONARYVAR
  5
2E
330
2D
100
DictionaryVariables
280
0
  1
1.4.4 @ 2026-09-29T23:14:09.975683+00:00
  0
DICTIONARYVAR
  5
33
330
2D
100
DictionaryVariables
280
0
  1
1.4.4 @ 2026-09-29T23:14:09.976396+00:00
  0
ENDSEC
  0
EOF
