  0
SECTION
  2
HEADER
  9
$ACADVER
  1
AC1027
  9
$ACADMAINTVER
 70
105
  9
$DWGCODEPAGE
  3
ANSI_1252
  9
$LASTSAVEDBY
  1
ezdxf
  9
$REQUIREDVERSIONS
160
0
  9
$INSBASE
 10
0.0
 20
0.0
 30
0.0
  9
$EXTMIN
 10
1e+20
 20
1e+20
 30
1e+20
  9
$EXTMAX
 10
-1e+20
 20
-1e+20
 30
-1e+20
  9
$LIMMIN
 10
0.0
 20
0.0
  9
$LIMMAX
 10
420.0
 20
297.0
  9
$ORTHOMODE
 70
0
  9
$REGENMODE
 70
1
  9
$FILLMODE
 70
1
  9
$QTEXTMODE
 70
0
  9
$MIRRTEXT
 70
1
  9
$LTSCALE
 40
1.0
  9
$ATTMODE
 70
1
  9
$TEXTSIZE
 40
2.5
  9
$TRACEWID
 40
1.0
  9
$TEXTSTYLE
  7
Standard
  9
$CLAYER
  8
0
  9
$CELTYPE
  6
ByLayer
  9
$CECOLOR
 62
256
  9
$CELTSCALE
 40
1.0
  9
$DISPSILH
 70
0
  9
$DIMSCALE
 40
1.0
  9
$DIMASZ
 40
2.5
  9
$DIMEXO
 40
0.625
  9
$DIMDLI
 40
3.75
  9
$DIMRND
 40
0.0
  9
$DIMDLE
 40
0.0
  9
$DIMEXE
 40
1.25
  9
$DIMTP
 40
0.0
  9
$DIMTM
 40
0.0
  9
$DIMTXT
 40
2.5
  9
$DIMCEN
 40
2.5
  9
$DIMTSZ
 40
0.0
  9
$DIMTOL
 70
0
  9
$DIMLIM
 70
0
  9
$DIMTIH
 70
0
  9
$DIMTOH
 70
0
  9
$DIMSE1
 70
0
  9
$DIMSE2
 70
0
  9
$DIMTAD
 70
1
  9
$DIMZIN
 70
8
  9
$DIMBLK
  1

  9
$DIMASO
 70
1
  9
$DIMSHO
 70
1
  9
$DIMPOST
  1

  9
$DIMAPOST
  1

  9
$DIMALT
 70
0
  9
$DIMALTD
 70
3
  9
$DIMALTF
 40
0.03937007874
  9
$DIMLFAC
 40
1.0
  9
$DIMTOFL
 70
1
  9
$DIMTVP
 40
0.0
  9
$DIMTIX
 70
0
  9
$DIMSOXD
 70
0
  9
$DIMSAH
 70
0
  9
$DIMBLK1
  1

  9
$DIMBLK2
  1

  9
$DIMSTYLE
  2
ISO-25
  9
$DIMCLRD
 70
0
  9
$DIMCLRE
 70
0
  9
$DIMCLRT
 70
0
  9
$DIMTFAC
 40
1.0
  9
$DIMGAP
 40
0.625
  9
$DIMJUST
 70
0
  9
$DIMSD1
 70
0
  9
$DIMSD2
 70
0
  9
$DIMTOLJ
 70
0
  9
$DIMTZIN
 70
8
  9
$DIMALTZ
 70
0
  9
$DIMALTTZ
 70
0
  9
$DIMUPT
 70
0
  9
$DIMDEC
 70
2
  9
$DIMTDEC
 70
2
  9
$DIMALTU
 70
2
  9
$DIMALTTD
 70
3
  9
$DIMTXSTY
  7
Standard
  9
$DIMAUNIT
 70
0
  9
$DIMADEC
 70
0
  9
$DIMALTRND
 40
0.0
  9
$DIMAZIN
 70
0
  9
$DIMDSEP
 70
44
  9
$DIMATFIT
 70
3
  9
$DIMFRAC
 70
0
  9
$DIMLDRBLK
  1

  9
$DIMLUNIT
 70
2
  9
$DIMLWD
 70
-2
  9
$DIMLWE
 70
-2
  9
$DIMTMOVE
 70
0
  9
$DIMFXL
 40
1.0
  9
$DIMFXLON
 70
0
  9
$DIMJOGANG
 40
0.785398163397
  9
$DIMTFILL
 70
0
  9
$DIMTFILLCLR
 70
0
  9
$DIMARCSYM
 70
0
  9
$DIMLTYPE
  6

  9
$DIMLTEX1
  6

  9
$DIMLTEX2
  6

  9
$DIMTXTDIRECTION
 70
0
  9
$LUNITS
 70
2
  9
$LUPREC
 70
4
  9
$SKETCHINC
 40
1.0
  9
$FILLETRAD
 40
10.0
  9
$AUNITS
 70
0
  9
$AUPREC
 70
2
  9
$MENU
  1
.
  9
$ELEVATION
 40
0.0
  9
$PELEVATION
 40
0.0
  9
$THICKNESS
 40
0.0
  9
$LIMCHECK
 70
0
  9
$CHAMFERA
 40
0.0
  9
$CHAMFERB
 40
0.0
  9
$CHAMFERC
 40
0.0
  9
$CHAMFERD
 40
0.0
  9
$SKPOLY
 70
0
  9
$TDCREATE
 40
2461313.968159722
  9
$TDUCREATE
 40
2458532.153996898
  9
$TDUPDATE
 40
2461313.968159722
  9
$TDUUPDATE
 40
2458532.1544311
  9
$TDINDWG
 40
0.0
  9
$TDUSRTIMER
 40
0.0
  9
$USRTIMER
 70
1
  9
$ANGBASE
 50
0.0
  9
$ANGDIR
 70
0
  9
$PDMODE
 70
0
  9
$PDSIZE
 40
0.0
  9
$PLINEWID
 40
0.0
  9
$SPLFRAME
 70
0
  9
$SPLINETYPE
 70
6
  9
$SPLINESEGS
 70
8
  9
$HANDSEED
  5
34
  9
$SURFTAB1
 70
6
  9
$SURFTAB2
 70
6
  9
$SURFTYPE
 70
6
  9
$SURFU
 70
6
  9
$SURFV
 70
6
  9
$UCSBASE
  2

  9
$UCSNAME
  2

  9
$UCSORG
 10
0.0
 20
0.0
 30
0.0
  9
$UCSXDIR
 10
1.0
 20
0.0
 30
0.0
  9
$UCSYDIR
 10
0.0
 20
1.0
 30
0.0
  9
$UCSORTHOREF
  2

  9
$UCSORTHOVIEW
 70
0
  9
$UCSORGTOP
 10
0.0
 20
0.0
 30
0.0
  9
$UCSORGBOTTOM
 10
0.0
 20
0.0
 30
0.0
  9
$UCSORGLEFT
 10
0.0
 20
0.0
 30
0.0
  9
$UCSORGRIGHT
 10
0.0
 20
0.0
 30
0.0
  9
$UCSORGFRONT
 10
0.0
 20
0.0
 30
0.0
  9
$UCSORGBACK
 10
0.0
 20
0.0
 30
0.0
  9
$PUCSBASE
  2

  9
$PUCSNAME
  2

  9
$PUCSORG
 10
0.0
 20
0.0
 30
0.0
  9
$PUCSXDIR
 10
1.0
 20
0.0
 30
0.0
  9
$PUCSYDIR
 10
0.0
 20
1.0
 30
0.0
  9
$PUCSORTHOREF
  2

  9
$PUCSORTHOVIEW
 70
0
  9
$PUCSORGTOP
 10
0.0
 20
0.0
 30
0.0
  9
$PUCSORGBOTTOM
 10
0.0
 20
0.0
 30
0.0
  9
$PUCSORGLEFT
 10
0.0
 20
0.0
 30
0.0
  9
$PUCSORGRIGHT
 10
0.0
 20
0.0
 30
0.0
  9
$PUCSORGFRONT
 10
0.0
 20
0.0
 30
0.0
  9
$PUCSORGBACK
 10
0.0
 20
0.0
 30
0.0
  9
$USERI1
 70
0
  9
$USERI2
 70
0
  9
$USERI3
 70
0
  9
$USERI4
 70
0
  9
$USERI5
 70
0
  9
$USERR1
 40
0.0
  9
$USERR2
 40
0.0
  9
$USERR3
 40
0.0
  9
$USERR4
 40
0.0
  9
$USERR5
 40
0.0
  9
$WORLDVIEW
 70
1
  9
$SHADEDGE
 70
3
  9
$SHADEDIF
 70
70
  9
$TILEMODE
 70
1
  9
$MAXACTVP
 70
64
  9
$PINSBASE
 10
0.0
 20
0.0
 30
0.0
  9
$PLIMCHECK
 70
0
  9
$PEXTMIN
 10
1e+20
 20
1e+20
 30
1e+20
  9
$PEXTMAX
 10
-1e+20
 20
-1e+20
 30
-1e+20
  9
$PLIMMIN
 10
0.0
 20
0.0
  9
$PLIMMAX
 10
420.0
 20
297.0
  9
$UNITMODE
 70
0
  9
$VISRETAIN
 70
1
  9
$PLINEGEN
 70
0
  9
$PSLTSCALE
 70
1
  9
$TREEDEPTH
 70
3020
  9
$CMLSTYLE
  2
Standard
  9
$CMLJUST
 70
0
  9
$CMLSCALE
 40
20.0
  9
$PROXYGRAPHICS
 70
1
  9
$MEASUREMENT
 70
1
  9
$CELWEIGHT
370
-1
  9
$ENDCAPS
280
0
  9
$JOINSTYLE
280
0
  9
$LWDISPLAY
290
0
  9
$INSUNITS
 70
6
  9
$HYPERLINKBASE
  1

  9
$STYLESHEET
  1

  9
$XEDIT
290
1
  9
$CEPSNTYPE
380
0
  9
$PSTYLEMODE
290
1
  9
$FINGERPRINTGUID
  2
{338AEAFD-14E5-4FF6-8A4D-1AAF8DE93ED0}
  9
$VERSIONGUID
  2
{A7940939-23D2-463B-A5AD-908468E740A0}
  9
$EXTNAMES
290
1
  9
$PSVPSCALE
 40
0.0
  9
$OLESTARTUP
290
0
  9
$SORTENTS
280
127
  9
$INDEXCTL
280
0
  9
$HIDETEXT
280
1
  9
$XCLIPFRAME
280
1
  9
$HALOGAP
280
0
  9
$OBSCOLOR
 70
257
  9
$OBSLTYPE
280
0
  9
$INTERSECTIONDISPLAY
280
0
  9
$INTERSECTIONCOLOR
 70
257
  9
$DIMASSOC
280
2
  9
$PROJECTNAME
  1

  9
$CAMERADISPLAY
290
0
  9
$LENSLENGTH
 40
50.0
  9
$CAMERAHEIGHT
 40
0.0
  9
$STEPSPERSEC
 40
24.0
  9
$STEPSIZE
 40
100.0
  9
$3DDWFPREC
 40
2.0
  9
$PSOLWIDTH
 40
0.005
  9
$PSOLHEIGHT
 40
0.08
  9
$LOFTANG1
 40
1.570796326795
  9
$LOFTANG2
 40
1.570796326795
  9
$LOFTMAG1
 40
0.0
  9
$LOFTMAG2
 40
0.0
  9
$LOFTPARAM
 70
7
  9
$LOFTNORMALS
280
1
  9
$LATITUDE
 40
37.795
  9
$LONGITUDE
 40
-122.394
  9
$NORTHDIRECTION
 40
0.0
  9
$TIMEZONE
 70
-8000
  9
$LIGHTGLYPHDISPLAY
280
1
  9
$TILEMODELIGHTSYNCH
280
1
  9
$CMATERIAL
347
20
  9
$SOLIDHIST
280
0
  9
$SHOWHIST
280
1
  9
$DWFFRAME
280
2
  9
$DGNFRAME
280
2
  9
$REALWORLDSCALE
290
1
  9
$INTERFERECOLOR
 62
256
  9
$CSHADOW
280
0
  9
$SHADOWPLANELOCATION
 40
0.0
  0
ENDSEC
  0
SECTION
  2
CLASSES
  0
CLASS
  1
ACDBDICTIONARYWDFLT
  2
AcDbDictionaryWithDefault
  3
ObjectDBX Classes
 90
0
 91
0
280
0
281
0
  0
CLASS
  1
SUN
  2
AcDbSun
  3
SCENEOE
 90
1153
 91
0
280
0
281
0
  0
CLASS
  1
VISUALSTYLE
  2
AcDbVisualStyle
  3
ObjectDBX Classes
 90
4095
 91
0
280
0
281
0
  0
CLASS
  1
MATERIAL
  2
AcDbMaterial
  3
ObjectDBX Classes
 90
1153
 91
0
280
0
281
0
  0
CLASS
  1
SCALE
  2
AcDbScale
  3
ObjectDBX Classes
 90
1153
 91
0
280
0
281
0
  0
CLASS
  1
TABLESTYLE
  2
AcDbTableStyle
  3
ObjectDBX Classes
 90
4095
 91
0
280
0
281
0
  0
CLASS
  1
MLEADERSTYLE
  2
AcDbMLeaderStyle
  3
ACDB_MLEADERSTYLE_CLASS
 90
4095
 91
0
280
0
281
0
  0
CLASS
  1
DICTIONARYVAR
  2
AcDbDictionaryVar
  3
ObjectDBX Classes
 90
0
 91
0
280
0
281
0
  0
CLASS
  1
CELLSTYLEMAP
  2
AcDbCellStyleMap
  3
ObjectDBX Classes
 90
1152
 91
0
280
0
281
0
  0
CLASS
  1
MENTALRAYRENDERSETTINGS
  2
AcDbMentalRayRenderSettings
  3
SCENEOE
 90
1024
 91
0
280
0
281
0
  0
CLASS
  1
ACDBDETAILVIEWSTYLE
  2
AcDbDetailViewStyle
  3
ObjectDBX Classes
 90
1025
 91
0
280
0
281
0
  0
CLASS
  1
ACDBSECTIONVIEWSTYLE
  2
AcDbSectionViewStyle
  3
ObjectDBX Classes
 90
1025
 91
0
280
0
281
0
  0
CLASS
  1
RASTERVARIABLES
  2
AcDbRasterVariables
  3
ISM
 90
0
 91
0
280
0
281
0
  0
CLASS
  1
ACDBPLACEHOLDER
  2
AcDbPlaceHolder
  3
ObjectDBX Classes
 90
0
 91
0
280
0
281
0
  0
CLASS
  1
LAYOUT
  2
AcDbLayout
  3
ObjectDBX Classes
 90
0
 91
0
280
0
281
0
  0
ENDSEC
  0
SECTION
  2
TABLES
  0
TABLE
  2
VPORT
  5
8
330
0
100
AcDbSymbolTable
 70
1
  0
VPORT
  5
23
330
8
100
AcDbSymbolTableRecord
100
AcDbViewportTableRecord
  2
*Active
 70
0
 10
0.0
 20
0.0
 11
1.0
 21
1.0
 12
0.0
 22
0.0
 13
0.0
 23
0.0
 14
0.5
 24
0.5
 15
0.5
 25
0.5
 16
0.0
 26
0.0
 36
1.0
 17
0.0
 27
0.0
 37
0.0
 40
1000.0
 41
1.34
 42
50.0
 43
0.0
 44
0.0
 50
0.0
 51
0.0
 71
0
 72
1000
 73
1
 74
3
 75
0
 76
0
 77
0
 78
0
281
0
 65
0
146
0.0
  0
ENDTAB
  0
TABLE
  2
LTYPE
  5
2
330
0
100
AcDbSymbolTable
 70
3
  0
LTYPE
  5
24
330
2
100
AcDbSymbolTableRecord
100
AcDbLinetypeTableRecord
  2
ByBlock
 70
0
  3

 72
65
 73
0
 40
0.0
  0
LTYPE
  5
25
330
2
100
AcDbSymbolTableRecord
100
AcDbLinetypeTableRecord
  2
ByLayer
 70
0
  3

 72
65
 73
0
 40
0.0
  0
LTYPE
  5
26
330
2
100
AcDbSymbolTableRecord
100
AcDbLinetypeTableRecord
  2
Continuous
 70
0
  3

 72
65
 73
0
 40
0.0
  0
ENDTAB
  0
TABLE
  2
LAYER
  5
1
330
0
100
AcDbSymbolTable
 70
2
  0
LAYER
  5
27
330
1
100
AcDbSymbolTableRecord
100
AcDbLayerTableRecord
  2
0
 70
0
 62
7
  6
Continuous
370
-3
390
13
347
21
  0
LAYER
  5
28
330
1
100
AcDbSymbolTableRecord
100
AcDbLayerTableRecord
  2
Defpoints
 70
0
 62
7
  6
Continuous
290
0
370
-3
390
13
347
21
  0
ENDTAB
  0
TABLE
  2
STYLE
  5
5
330
0
100
AcDbSymbolTable
 70
1
  0
STYLE
  5
29
330
5
100
AcDbSymbolTableRecord
100
AcDbTextStyleTableRecord
  2
Standard
 70
0
 40
0.0
 41
1.0
 50
0.0
 71
0
 42
2.5
  3
txt
  4

  0
ENDTAB
  0
TABLE
  2
VIEW
  5
7
330
0
100
AcDbSymbolTable
 70
0
  0
ENDTAB
  0
TABLE
  2
UCS
  5
6
330
0
100
AcDbSymbolTable
 70
0
  0
ENDTAB
  0
TABLE
  2
APPID
  5
3
330
0
100
AcDbSymbolTable
 70
3
  0
APPID
  5
2A
330
3
100
AcDbSymbolTableRecord
100
AcDbRegAppTableRecord
  2
ACAD
 70
0
  0
APPID
  5
31
330
3
100
AcDbSymbolTableRecord
100
AcDbRegAppTableRecord
  2
HATCHBACKGROUNDCOLOR
 70
0
  0
APPID
  5
32
330
3
100
AcDbSymbolTableRecord
100
AcDbRegAppTableRecord
  2
EZDXF
 70
0
  0
ENDTAB
  0
TABLE
  2
DIMSTYLE
  5
4
330
0
100
AcDbSymbolTable
 70
1
100
AcDbDimStyleTable
  0
DIMSTYLE
105
2B
330
4
100
AcDbSymbolTableRecord
100
AcDbDimStyleTableRecord
  2
Standard
 70
0
 40
1.0
 41
2.5
 42
0.625
 43
3.75
 44
1.25
 45
0.0
 46
0.0
 47
0.0
 48
0.0
 49
2.5
140
2.5
141
2.5
142
0.0
143
0.03937007874
144
1.0
145
0.0
146
1.0
147
0.625
148
0.0
 69
0
 70
0
 71
0
 72
0
 73
0
 74
0
 75
0
 76
0
 77
1
 78
8
 79
3
170
0
171
3
172
1
173
0
174
0
175
0
176
0
177
0
178
0
179
2
271
2
272
2
273
2
274
3
275
0
276
0
277
2
278
44
279
0
280
0
281
0
282
0
283
0
284
8
285
0
286
0
288
0
289
3
290
0
371
-2
372
-2
  0
ENDTAB
  0
TABLE
  2
BLOCK_RECORD
  5
9
330
0
100
AcDbSymbolTable
 70
2
  0
BLOCK_RECORD
  5
17
330
9
100
AcDbSymbolTableRecord
100
AcDbBlockTableRecord
  2
*Model_Space
340
1A
 70
0
280
1
281
0
  0
BLOCK_RECORD
  5
1B
330
9
100
AcDbSymbolTableRecord
100
AcDbBlockTableRecord
  2
*Paper_Space
340
1E
 70
0
280
1
281
0
  0
ENDTAB
  0
ENDSEC
  0
SECTION
  2
BLOCKS
  0
BLOCK
  5
18
330
17
100
AcDbEntity
  8
0
100
AcDbBlockBegin
  2
*Model_Space
 70
0
 10
0.0
 20
0.0
 30
0.0
  3
*Model_Space
  1

  0
ENDBLK
  5
19
330
17
100
AcDbEntity
  8
0
100
AcDbBlockEnd
  0
BLOCK
  5
1C
330
1B
100
AcDbEntity
  8
0
100
AcDbBlockBegin
  2
*Paper_Space
 70
0
 10
0.0
 20
0.0
 30
0.0
  3
*Paper_Space
  1

  0
ENDBLK
  5
1D
330
1B
100
AcDbEntity
  8
0
100
AcDbBlockEnd
  0
ENDSEC
  0
SECTION
  2
ENTITIES
  0
SPLINE
  5
2F
330
17
100
AcDbEntity
  8
0
100
AcDbSpline
 70
0
 71
3
 72
0
 73
0
 74
239
 11
249.39101256495604
 21
286.612422402985
 31
0.0
 11
249.34923853758016
 21
286.5973901505025
 31
0.0
 11
249.223940307476
 21
286.55232179600966
 31
0.0
 11
249.01518944395414
 21
286.477302451024
 31
0.0
 11
248.7231052730231
 21
286.37247364433495
 31
0.0
 11
248.34785494204468
 21
286.23803283900656
 31
0.0
 11
247.8896535081088
 21
286.07423276137786
 31
0.0
 11
247.34876404802253
 21
285.88138054718974
 31
0.0
 11
246.72549778726275
 21
285.6598367113411
 31
0.0
 11
246.02021424473594
 21
285.4100139490797
 31
0.0
 11
245.23332138972816
 21
285.13237577765153
 31
0.0
 11
244.36527580702625
 21
284.82743502855953
 31
0.0
 11
243.41658286584408
 21
284.49575220159846
 31
0.0
 11
242.38779688790947
 21
284.1379336927296
 31
0.0
 11
241.27952130985736
 21
283.7546299086313
 31
0.0
 11
240.0924088349315
 21
283.3465332813943
 31
0.0
 11
238.82716156893395
 21
282.9143761973215
 31
0.0
 11
237.48453113536445
 21
282.45892885413514
 31
0.0
 11
236.06531876477132
 21
281.98099706108576
 31
0.0
 11
234.57037535348093
 21
281.48141999649374
 31
0.0
 11
233.0006014870887
 21
280.96106793714006
 31
0.0
 11
231.35694742436866
 21
280.4208399736523
 31
0.0
 11
229.64041303759203
 21
279.8616617256165
 31
0.0
 11
227.85204770562657
 21
279.2844830695843
 31
0.0
 11
225.9929501566154
 21
278.6902758924449
 31
0.0
 11
224.06426825749153
 21
278.0800318818063
 31
0.0
 11
222.06719874807627
 21
277.4547603640834
 31
0.0
 11
220.00298691800813
 21
276.8154861999353
 31
0.0
 11
217.87292622526905
 21
276.16324774554647
 31
0.0
 11
215.6783578555828
 21
275.499094887016
 31
0.0
 11
213.4206702224674
 21
274.8240871538213
 31
0.0
 11
211.10129840820656
 21
274.1392919159765
 31
0.0
 11
208.72172354646625
 21
273.4457826681237
 31
0.0
 11
206.28347214770392
 21
272.74463740239895
 31
0.0
 11
203.78811536890186
 21
272.0369370705163
 31
0.0
 11
201.2372682294899
 21
271.32376413413573
 31
0.0
 11
198.6325887756034
 21
270.6062012012393
 31
0.0
 11
195.97577719504548
 21
269.885329744949
 31
0.0
 11
193.26857488548413
 21
269.1622289000054
 31
0.0
 11
190.5127634785148
 21
268.43797433099184
 31
0.0
 11
187.71016382225488
 21
267.7136371653613
 31
0.0
 11
184.8626349251073
 21
266.9902829834118
 31
0.0
 11
181.97207286324533
 21
266.2689708565699
 31
0.0
 11
179.04040965422155
 21
265.5507524247034
 31
0.0
 11
176.06961209890494
 21
264.83667100268985
 31
0.0
 11
173.06168059370188
 21
264.1277607061368
 31
0.0
 11
170.01864791472457
 21
263.42504558598034
 31
0.0
 11
166.942577975248
 21
262.7295387616909
 31
0.0
 11
163.8355645574411
 21
262.0422415429874
 31
0.0
 11
160.69973001899072
 21
261.3641425303032
 31
0.0
 11
157.53722397485606
 21
260.69621668475855
 31
0.0
 11
154.35022195401436
 21
260.0394243590718
 31
0.0
 11
151.14092403068798
 21
259.3947102816706
 31
0.0
 11
147.91155342919623
 21
258.7630024872471
 31
0.0
 11
144.6643551012515
 21
258.1452111881178
 31
0.0
 11
141.40159427423848
 21
257.54222758199097
 31
0.0
 11
138.1255549687734
 21
256.95492259309486
 31
0.0
 11
134.83853848365524
 21
256.3841455450661
 31
0.0
 11
131.54286184619278
 21
255.83072276551576
 31
0.0
 11
128.24085622582572
 21
255.29545612376927
 31
0.0
 11
124.9348653089629
 21
254.77912150488658
 31
0.0
 11
121.62724363303235
 21
254.2824672247005
 31
0.0
 11
118.32035487788549
 21
253.80621239223126
 31
0.0
 11
115.016570112913
 21
253.3510452274336
 31
0.0
 11
111.71826599851855
 21
252.91762134377785
 31
0.0
 11
108.42782294095059
 21
252.50656200664605
 31
0.0
 11
105.14762319991124
 21
252.11845237990866
 31
0.0
 11
101.88004894883613
 21
251.75383977432728
 31
0.0
 11
98.5816043153634
 21
251.41462356377903
 31
0.0
 11
95.29269671792761
 21
251.1111867381533
 31
0.0
 11
92.0225176652723
 21
250.84429542831725
 31
0.0
 11
88.77365837001655
 21
250.61407734382718
 31
0.0
 11
85.54870517209561
 21
250.42058070091593
 31
0.0
 11
82.35023618098535
 21
250.2637737222995
 31
0.0
 11
79.18081784190984
 21
250.1435443790332
 31
0.0
 11
76.04300143984858
 21
250.05970038989068
 31
0.0
 11
72.93931955636393
 21
250.01196949260924
 31
0.0
 11
69.87228249531381
 21
250.0
 31
0.0
 11
66.84437469438133
 21
250.02336165237466
 31
0.0
 11
63.85805114002434
 21
250.0815467760073
 31
0.0
 11
60.9157338039101
 21
250.17397175544863
 31
0.0
 11
58.01980811914324
 21
250.2999788254623
 31
0.0
 11
55.17261951461164
 21
250.45883818617688
 31
0.0
 11
52.37647002556387
 21
250.6497504427724
 31
0.0
 11
49.63361499809214
 21
250.87184936866237
 31
0.0
 11
46.94625990453186
 21
251.12420498872433
 31
0.0
 11
44.31655728591248
 21
251.40582697669254
 31
0.0
 11
41.74660383651281
 21
251.71566835838317
 31
0.0
 11
39.2384376443056
 21
252.05262950999924
 31
0.0
 11
36.794035599635976
 21
252.4155624383829
 31
0.0
 11
34.41531098288819
 21
252.80327532776772
 31
0.0
 11
32.10411124017558
 21
253.21453733535964
 31
0.0
 11
29.86221595426604
 21
253.64808361595362
 31
0.0
 11
27.691335016052967
 21
254.10262055380466
 31
0.0
 11
25.593106999927087
 21
254.57683117811985
 31
0.0
 11
23.569097744425356
 21
255.0693807368508
 31
0.0
 11
21.62079913755424
 21
255.5789224019469
 31
0.0
 11
19.749628104236443
 21
256.10410307789704
 31
0.0
 11
17.956925791434514
 21
256.6435692842479
 31
0.0
 11
16.24395694469151
 21
257.19597308185
 31
0.0
 11
14.611909468117734
 21
257.75997801185304
 31
0.0
 11
13.061894158269743
 21
258.3342650159568
 31
0.0
 11
11.594944600929553
 21
258.91753830612413
 31
0.0
 11
10.212017218520982
 21
259.5085311518779
 31
0.0
 11
8.913991454807576
 21
260.1060115534383
 31
0.0
 11
7.701670082620123
 21
260.7087877693049
 31
0.0
 11
6.575779619668477
 21
261.3157136674447
 31
0.0
 11
5.536970837012527
 21
261.92569387001726
 31
0.0
 11
4.585819344504467
 21
262.5376886625284
 31
0.0
 11
3.7228262374711734
 21
263.15071863946844
 31
0.0
 11
2.948418789081277
 21
263.7638690598321
 31
0.0
 11
2.2629511732324064
 21
264.3762938874376
 31
0.0
 11
1.6667052033933123
 21
264.9872194926498
 31
0.0
 11
1.1598910736351973
 21
265.5959479939478
 31
0.0
 11
0.7426480890738716
 21
266.20186021976446
 31
0.0
 11
0.41504537410579934
 21
266.80441827313126
 31
0.0
 11
0.17708254814082697
 21
267.4031676838944
 31
0.0
 11
0.028690359993494556
 21
267.99773913559454
 31
0.0
 11
-0.03026872632562356
 21
268.58784975652236
 31
0.0
 11
0.0
 21
269.17330396695365
 31
0.0
 11
0.11838614832481703
 21
269.747458299999
 31
0.0
 11
0.3237147425631368
 21
270.30372256810654
 31
0.0
 11
0.6155867910708106
 21
270.8420608658833
 31
0.0
 11
0.9935420998946621
 21
271.362455900369
 31
0.0
 11
1.4570600733709538
 21
271.8649090221979
 31
0.0
 11
2.005560676065625
 21
272.3494403774127
 31
0.0
 11
2.6384055500416066
 21
272.8160891751833
 31
0.0
 11
3.354899279637671
 21
273.2649140651036
 31
0.0
 11
4.154290794242973
 21
273.69599361622267
 31
0.0
 11
5.035774897971424
 21
274.1094268885255
 31
0.0
 11
5.998493913701729
 21
274.5053340862174
 31
0.0
 11
7.041539427669979
 21
274.88385728090964
 31
0.0
 11
8.163954119698605
 21
275.2451611916486
 31
0.0
 11
9.364733663233277
 21
275.5894340076984
 31
0.0
 11
10.64282867864817
 21
275.9168882390814
 31
0.0
 11
11.99714672278064
 21
276.22776157911164
 31
0.0
 11
13.426554297374805
 21
276.52231776253296
 31
0.0
 11
14.92987885905319
 21
276.8008474024038
 31
0.0
 11
16.50591081359799
 21
277.06366878855766
 31
0.0
 11
18.153405477706887
 21
277.3111286303219
 31
0.0
 11
19.87108499198656
 21
277.5436027261968
 31
0.0
 11
21.657640169754817
 21
277.7614965433925
 31
0.0
 11
23.511732267225984
 21
277.96524569048415
 31
0.0
 11
25.431994661844353
 21
278.15531626698834
 31
0.0
 11
27.41703442688732
 21
278.33220507437727
 31
0.0
 11
29.465433791969733
 21
278.49643967392933
 31
0.0
 11
31.575751480718772
 21
278.64857827786807
 31
0.0
 11
33.74652391863744
 21
278.7892094614544
 31
0.0
 11
35.97626630600529
 21
278.9189516850615
 31
0.0
 11
38.26347355255709
 21
279.0384526167786
 31
0.0
 11
40.60662107260349
 21
279.1483882477353
 31
0.0
 11
43.004165441188874
 21
279.2494617941094
 31
0.0
 11
45.4545449137905
 21
279.34240238166535
 31
0.0
 11
47.95617981392484
 21
279.42796351064
 31
0.0
 11
50.50747279481517
 21
279.5069213008481
 31
0.0
 11
53.1068089829611
 21
279.5800725189882
 31
0.0
 11
55.752556013016125
 21
279.64823239227826
 31
0.0
 11
58.44306396479584
 21
279.71223221471723
 31
0.0
 11
61.17666521449252
 21
279.7729167544293
 31
0.0
 11
63.95167421323821
 21
279.8311414726833
 31
0.0
 11
66.76638720702869
 21
279.8877695672624
 31
0.0
 11
69.6190819126786
 21
279.94366885486676
 31
0.0
 11
72.50801716491837
 21
279.99970850914616
 31
0.0
 11
75.43143254996052
 21
280.0567556727442
 31
0.0
 11
78.38754804085454
 21
280.11567196338336
 31
0.0
 11
81.37456364972118
 21
280.17730989549705
 31
0.0
 11
84.39065911151125
 21
280.2425092402085
 31
0.0
 11
87.43399361328558
 21
280.3120933475423
 31
0.0
 11
90.50270558217092
 21
280.3868654556221
 31
0.0
 11
93.59491254413132
 21
280.46760501223656
 31
0.0
 11
96.70871106452402
 21
280.55506403454353
 31
0.0
 11
99.84878859452289
 21
280.65033553767194
 31
0.0
 11
103.05201229225672
 21
280.7499591170311
 31
0.0
 11
106.27097160549037
 21
280.8470027967808
 31
0.0
 11
109.50350268470797
 21
280.9419139299604
 31
0.0
 11
112.74742787357557
 21
281.03512454540925
 31
0.0
 11
116.00055698598041
 21
281.12704914689414
 31
0.0
 11
119.26068863019351
 21
281.2180826571123
 31
0.0
 11
122.52561157772318
 21
281.3085985216711
 31
0.0
 11
125.79310617397071
 21
281.39894698645514
 31
0.0
 11
129.0609457874101
 21
281.48945355999
 31
0.0
 11
132.326898293683
 21
281.58041767051867
 31
0.0
 11
135.58872759074322
 21
281.67211152553944
 31
0.0
 11
138.84419514099537
 21
281.7647791795421
 31
0.0
 11
142.09106153626155
 21
281.8586358136389
 31
0.0
 11
145.32708808136664
 21
281.9538672287446
 31
0.0
 11
148.55003839216448
 21
282.0506295519358
 31
0.0
 11
151.7576800039282
 21
282.14904915363854
 31
0.0
 11
154.94778598618956
 21
282.24922277137307
 31
0.0
 11
158.11813656034136
 21
282.351217833947
 31
0.0
 11
161.26652071658825
 21
282.45507297825236
 31
0.0
 11
164.39073782716034
 21
282.5607987492052
 31
0.0
 11
167.4885992530616
 21
282.6683784718827
 31
0.0
 11
170.5579299420157
 21
282.77776928357974
 31
0.0
 11
173.5965700156843
 21
282.8889033123312
 31
0.0
 11
176.60237634465045
 21
283.0016889874439
 31
0.0
 11
179.57322411008337
 21
283.11601246675605
 31
0.0
 11
182.50700835141345
 21
283.23173916469835
 31
0.0
 11
185.40164549974105
 21
283.34871536477715
 31
0.0
 11
188.25507489707218
 21
283.4667698998296
 31
0.0
 11
191.0652603018086
 21
283.58571588332234
 31
0.0
 11
193.83019138121176
 21
283.7053524750612
 31
0.0
 11
196.54788519180497
 21
283.82546666496546
 31
0.0
 11
199.21638764886697
 21
283.9458350590009
 31
0.0
 11
201.83377498630526
 21
284.0662256519832
 31
0.0
 11
204.39815520826508
 21
284.18639957271637
 31
0.0
 11
206.90766953384025
 21
284.3061127878318
 31
0.0
 11
209.36049383619584
 21
284.42511775171107
 31
0.0
 11
211.75484007729239
 21
284.5431649910054
 31
0.0
 11
214.08895773922353
 21
284.66000461348375
 31
0.0
 11
216.3611352529379
 21
284.7753877322391
 31
0.0
 11
218.569701424826
 21
284.8890677976365
 31
0.0
 11
220.71302686131236
 21
285.0008018307814
 31
0.0
 11
222.7895253912079
 21
285.110351553705
 31
0.0
 11
224.7976554851632
 21
285.2174844128873
 31
0.0
 11
226.73592167111428
 21
285.32197449415065
 31
0.0
 11
228.60287594415223
 21
285.4236033283385
 31
0.0
 11
230.3971191687704
 21
285.5221605885344
 31
0.0
 11
232.117302470971
 21
285.61744468085254
 31
0.0
 11
233.76212861724403
 21
285.70926323203753
 31
0.0
 11
235.3303533769819
 21
285.7974334782273
 31
0.0
 11
236.82078686447144
 21
285.8817825602503
 31
0.0
 11
238.23229485621397
 21
285.96214773173904
 31
0.0
 11
239.563800078978
 21
286.03837648713005
 31
0.0
 11
240.81428346369316
 21
286.11032661728774
 31
0.0
 11
241.98278536005134
 21
286.1778662010215
 31
0.0
 11
243.06840670650254
 21
286.2408735411658
 31
0.0
 11
244.07031015021906
 21
286.29923705415155
 31
0.0
 11
244.98772111155614
 21
286.35285512212374
 31
0.0
 11
245.81992878756586
 21
286.4016359166416
 31
0.0
 11
246.56628708921917
 21
286.4454972028521
 31
0.0
 11
247.22621550716272
 21
286.48436613274595
 31
0.0
 11
247.79919990108013
 21
286.51817903570384
 31
0.0
 11
248.28479320803825
 21
286.5468812140162
 31
0.0
 11
248.68261606557306
 21
286.57042675043317
 31
0.0
 11
248.99235734570658
 21
286.5887783340687
 31
0.0
 11
249.2137745965741
 21
286.60190711016776
 31
0.0
 11
249.34669438887738
 21
286.60979255834985
 31
0.0
 11
249.39101256495604
 21
286.612422402985
 31
0.0
  0
LWPOLYLINE
  5
30
330
17
100
AcDbEntity
  8
0
100
AcDbPolyline
 90
4
 70
1
 10
-1250.0
 20
0.0
 10
2750.0
 20
0.0
 10
2750.0
 20
1500.0
 10
-1250.0
 20
1500.0
  0
ENDSEC
  0
SECTION
  2
OBJECTS
  0
DICTIONARY
  5
A
330
0
100
AcDbDictionary
281
1
  3
ACAD_COLOR
350
B
  3
ACAD_GROUP
350
C
  3
ACAD_LAYOUT
350
D
  3
ACAD_MATERIAL
350
E
  3
ACAD_MLEADERSTYLE
350
F
  3
ACAD_MLINESTYLE
350
10
  3
ACAD_PLOTSETTINGS
350
11
  3
ACAD_PLOTSTYLENAME
350
12
  3
ACAD_SCALELIST
350
14
  3
ACAD_TABLESTYLE
350
15
  3
ACAD_VISUALSTYLE
350
16
  3
EZDXF_META
350
2D
  0
DICTIONARY
  5
B
330
A
100
AcDbDictionary
281
1
  0
DICTIONARY
  5
C
330
A
100
AcDbDictionary
281
1
  0
DICTIONARY
  5
D
330
A
100
AcDbDictionary
281
1
  3
Model
350
1A
  3
Layout1
350
1E
  0
DICTIONARY
  5
E
330
A
100
AcDbDictionary
281
1
  3
ByBlock
350
1F
  3
ByLayer
350
20
  3
Global
350
21
  0
DICTIONARY
  5
F
330
A
100
AcDbDictionary
281
1
  3
Standard
350
2C
  0
DICTIONARY
  5
10
330
A
100
AcDbDictionary
281
1
  3
Standard
350
22
  0
DICTIONARY
  5
11
330
A
100
AcDbDictionary
281
1
  0
ACDBDICTIONARYWDFLT
  5
12
330
A
100
AcDbDictionary
281
1
  3
Normal
350
13
100
AcDbDictionaryWithDefault
340
13
  0
ACDBPLACEHOLDER
  5
13
330
12
  0
DICTIONARY
  5
14
330
A
100
AcDbDictionary
281
1
  0
DICTIONARY
  5
15
330
A
100
AcDbDictionary
281
1
  0
DICTIONARY
  5
16
330
A
100
AcDbDictionary
281
1
  0
LAYOUT
  5
1A
330
D
100
AcDbPlotSettings
  1

  4
A3
  6

 40
7.5
 41
20.0
 42
7.5
 43
20.0
 44
420.0
 45
297.0
 46
0.0
 47
0.0
 48
0.0
 49
0.0
140
0.0
141
0.0
142
1.0
143
1.0
 70
1024
 72
1
 73
0
 74
5
  7

 75
16
 76
0
 77
2
 78
300
147
1.0
148
0.0
149
0.0
100
AcDbLayout
  1
Model
 70
1
 71
0
 10
0.0
 20
0.0
 11
420.0
 21
297.0
 12
0.0
 22
0.0
 32
0.0
 14
1e+20
 24
1e+20
 34
1e+20
 15
-1e+20
 25
-1e+20
 35
-1e+20
146
0.0
 13
0.0
 23
0.0
 33
0.0
 16
1.0
 26
0.0
 36
0.0
 17
0.0
 27
1.0
 37
0.0
 76
1
330
17
  0
LAYOUT
  5
1E
330
D
100
AcDbPlotSettings
  1

  4
A3
  6

 40
7.5
 41
20.0
 42
7.5
 43
20.0
 44
420.0
 45
297.0
 46
0.0
 47
0.0
 48
0.0
 49
0.0
140
0.0
141
0.0
142
1.0
143
1.0
 70
0
 72
1
 73
0
 74
5
  7

 75
16
 76
0
 77
2
 78
300
147
1.0
148
0.0
149
0.0
100
AcDbLayout
  1
Layout1
 70
1
 71
1
 10
0.0
 20
0.0
 11
420.0
 21
297.0
 12
0.0
 22
0.0
 32
0.0
 14
1e+20
 24
1e+20
 34
1e+20
 15
-1e+20
 25
-1e+20
 35
-1e+20
146
0.0
 13
0.0
 23
0.0
 33
0.0
 16
1.0
 26
0.0
 36
0.0
 17
0.0
 27
1.0
 37
0.0
 76
1
330
1B
  0
MATERIAL
  5
1F
102
{ACAD_REACTORS
330
E
102
}
330
E
100
AcDbMaterial
  1
ByBlock
  2

 70
0
 40
1.0
 71
1
 41
1.0
 91
-1023410177
 42
1.0
 72
1
  3

 73
1
 74
1
 75
1
 44
0.5
 73
0
 45
1.0
 46
1.0
 77
1
  4

 78
1
 79
1
170
1
 48
1.0
171
1
  6

172
1
173
1
174
1
140
1.0
141
1.0
175
1
  7

176
1
177
1
178
1
143
1.0
179
1
  8

270
1
271
1
272
1
145
1.0
146
1.0
273
1
  9

274
1
275
1
276
1
 42
1.0
 72
1
  3

 73
1
 74
1
 75
1
 94
63
  0
MATERIAL
  5
20
102
{ACAD_REACTORS
330
E
102
}
330
E
100
AcDbMaterial
  1
ByLayer
  2

 70
0
 40
1.0
 71
1
 41
1.0
 91
-1023410177
 42
1.0
 72
1
  3

 73
1
 74
1
 75
1
 44
0.5
 73
0
 45
1.0
 46
1.0
 77
1
  4

 78
1
 79
1
170
1
 48
1.0
171
1
  6

172
1
173
1
174
1
140
1.0
141
1.0
175
1
  7

176
1
177
1
178
1
143
1.0
179
1
  8

270
1
271
1
272
1
145
1.0
146
1.0
273
1
  9

274
1
275
1
276
1
 42
1.0
 72
1
  3

 73
1
 74
1
 75
1
 94
63
  0
MATERIAL
  5
21
102
{ACAD_REACTORS
330
E
102
}
330
E
100
AcDbMaterial
  1
Global
  2

 70
0
 40
1.0
 71
1
 41
1.0
 91
-1023410177
 42
1.0
 72
1
  3

 73
1
 74
1
 75
1
 44
0.5
 73
0
 45
1.0
 46
1.0
 77
1
  4

 78
1
 79
1
170
1
 48
1.0
171
1
  6

172
1
173
1
174
1
140
1.0
141
1.0
175
1
  7

176
1
177
1
178
1
143
1.0
179
1
  8

270
1
271
1
272
1
145
1.0
146
1.0
273
1
  9

274
1
275
1
276
1
 42
1.0
 72
1
  3

 73
1
 74
1
 75
1
 94
63
  0
MLINESTYLE
  5
22
102
{ACAD_REACTORS
330
10
102
}
330
10
100
AcDbMlineStyle
  2
Standard
 70
0
  3

 62
256
 51
90.0
 52
90.0
 71
2
 49
0.5
 62
256
  6
BYLAYER
 49
-0.5
 62
256
  6
BYLAYER
  0
MLEADERSTYLE
  5
2C
102
{ACAD_REACTORS
330
F
102
}
330
F
100
AcDbMLeaderStyle
179
2
170
2
171
1
172
0
 90
2
 40
0.0
 41
0.0
173
1
 91
-1056964608
 92
-2
290
1
 42
2.0
291
1
 43
8.0
  3
Standard
 44
4.0
300

342
29
174
1
175
1
176
0
178
1
 93
-1056964608
 45
4.0
292
0
297
0
 46
4.0
 94
-1056964608
 47
1.0
 49
1.0
140
1.0
294
1
141
0.0
177
0
142
1.0
295
0
296
0
143
3.75
271
0
272
9
273
9
  0
DICTIONARY
  5
2D
330
A
100
AcDbDictionary
280
1
281
1
  3
CREATED_BY_EZDXF
350
2E
  3
WRITTEN_BY_EZDXF
350
33
  0
DICTIONARYVAR
  5
2E
330
2D
100
DictionaryVariables
280
0
  1
1.4.4 @ 2026-09-29T23:14:09.961945+00:00
  0
DICTIONARYVAR
  5
33
330
2D
100
DictionaryVariables
280
0
  1
1.4.4 @ 2026-09-29T23:14:09.962861+00:00
  0
ENDSEC
  0
EOF
