  0
SECTION
  2
HEADER
  9
$ACADVER
  1
AC1027
  9
$ACADMAINTVER
 70
105
  9
$DWGCODEPAGE
  3
ANSI_1252
  9
$LASTSAVEDBY
  1
ezdxf
  9
$REQUIREDVERSIONS
160
0
  9
$INSBASE
 10
0.0
 20
0.0
 30
0.0
  9
$EXTMIN
 10
1e+20
 20
1e+20
 30
1e+20
  9
$EXTMAX
 10
-1e+20
 20
-1e+20
 30
-1e+20
  9
$LIMMIN
 10
0.0
 20
0.0
  9
$LIMMAX
 10
420.0
 20
297.0
  9
$ORTHOMODE
 70
0
  9
$REGENMODE
 70
1
  9
$FILLMODE
 70
1
  9
$QTEXTMODE
 70
0
  9
$MIRRTEXT
 70
1
  9
$LTSCALE
 40
1.0
  9
$ATTMODE
 70
1
  9
$TEXTSIZE
 40
2.5
  9
$TRACEWID
 40
1.0
  9
$TEXTSTYLE
  7
Standard
  9
$CLAYER
  8
0
  9
$CELTYPE
  6
ByLayer
  9
$CECOLOR
 62
256
  9
$CELTSCALE
 40
1.0
  9
$DISPSILH
 70
0
  9
$DIMSCALE
 40
1.0
  9
$DIMASZ
 40
2.5
  9
$DIMEXO
 40
0.625
  9
$DIMDLI
 40
3.75
  9
$DIMRND
 40
0.0
  9
$DIMDLE
 40
0.0
  9
$DIMEXE
 40
1.25
  9
$DIMTP
 40
0.0
  9
$DIMTM
 40
0.0
  9
$DIMTXT
 40
2.5
  9
$DIMCEN
 40
2.5
  9
$DIMTSZ
 40
0.0
  9
$DIMTOL
 70
0
  9
$DIMLIM
 70
0
  9
$DIMTIH
 70
0
  9
$DIMTOH
 70
0
  9
$DIMSE1
 70
0
  9
$DIMSE2
 70
0
  9
$DIMTAD
 70
1
  9
$DIMZIN
 70
8
  9
$DIMBLK
  1

  9
$DIMASO
 70
1
  9
$DIMSHO
 70
1
  9
$DIMPOST
  1

  9
$DIMAPOST
  1

  9
$DIMALT
 70
0
  9
$DIMALTD
 70
3
  9
$DIMALTF
 40
0.03937007874
  9
$DIMLFAC
 40
1.0
  9
$DIMTOFL
 70
1
  9
$DIMTVP
 40
0.0
  9
$DIMTIX
 70
0
  9
$DIMSOXD
 70
0
  9
$DIMSAH
 70
0
  9
$DIMBLK1
  1

  9
$DIMBLK2
  1

  9
$DIMSTYLE
  2
ISO-25
  9
$DIMCLRD
 70
0
  9
$DIMCLRE
 70
0
  9
$DIMCLRT
 70
0
  9
$DIMTFAC
 40
1.0
  9
$DIMGAP
 40
0.625
  9
$DIMJUST
 70
0
  9
$DIMSD1
 70
0
  9
$DIMSD2
 70
0
  9
$DIMTOLJ
 70
0
  9
$DIMTZIN
 70
8
  9
$DIMALTZ
 70
0
  9
$DIMALTTZ
 70
0
  9
$DIMUPT
 70
0
  9
$DIMDEC
 70
2
  9
$DIMTDEC
 70
2
  9
$DIMALTU
 70
2
  9
$DIMALTTD
 70
3
  9
$DIMTXSTY
  7
Standard
  9
$DIMAUNIT
 70
0
  9
$DIMADEC
 70
0
  9
$DIMALTRND
 40
0.0
  9
$DIMAZIN
 70
0
  9
$DIMDSEP
 70
44
  9
$DIMATFIT
 70
3
  9
$DIMFRAC
 70
0
  9
$DIMLDRBLK
  1

  9
$DIMLUNIT
 70
2
  9
$DIMLWD
 70
-2
  9
$DIMLWE
 70
-2
  9
$DIMTMOVE
 70
0
  9
$DIMFXL
 40
1.0
  9
$DIMFXLON
 70
0
  9
$DIMJOGANG
 40
0.785398163397
  9
$DIMTFILL
 70
0
  9
$DIMTFILLCLR
 70
0
  9
$DIMARCSYM
 70
0
  9
$DIMLTYPE
  6

  9
$DIMLTEX1
  6

  9
$DIMLTEX2
  6

  9
$DIMTXTDIRECTION
 70
0
  9
$LUNITS
 70
2
  9
$LUPREC
 70
4
  9
$SKETCHINC
 40
1.0
  9
$FILLETRAD
 40
10.0
  9
$AUNITS
 70
0
  9
$AUPREC
 70
2
  9
$MENU
  1
.
  9
$ELEVATION
 40
0.0
  9
$PELEVATION
 40
0.0
  9
$THICKNESS
 40
0.0
  9
$LIMCHECK
 70
0
  9
$CHAMFERA
 40
0.0
  9
$CHAMFERB
 40
0.0
  9
$CHAMFERC
 40
0.0
  9
$CHAMFERD
 40
0.0
  9
$SKPOLY
 70
0
  9
$TDCREATE
 40
2461313.968159722
  9
$TDUCREATE
 40
2458532.153996898
  9
$TDUPDATE
 40
2461313.968159722
  9
$TDUUPDATE
 40
2458532.1544311
  9
$TDINDWG
 40
0.0
  9
$TDUSRTIMER
 40
0.0
  9
$USRTIMER
 70
1
  9
$ANGBASE
 50
0.0
  9
$ANGDIR
 70
0
  9
$PDMODE
 70
0
  9
$PDSIZE
 40
0.0
  9
$PLINEWID
 40
0.0
  9
$SPLFRAME
 70
0
  9
$SPLINETYPE
 70
6
  9
$SPLINESEGS
 70
8
  9
$HANDSEED
  5
34
  9
$SURFTAB1
 70
6
  9
$SURFTAB2
 70
6
  9
$SURFTYPE
 70
6
  9
$SURFU
 70
6
  9
$SURFV
 70
6
  9
$UCSBASE
  2

  9
$UCSNAME
  2

  9
$UCSORG
 10
0.0
 20
0.0
 30
0.0
  9
$UCSXDIR
 10
1.0
 20
0.0
 30
0.0
  9
$UCSYDIR
 10
0.0
 20
1.0
 30
0.0
  9
$UCSORTHOREF
  2

  9
$UCSORTHOVIEW
 70
0
  9
$UCSORGTOP
 10
0.0
 20
0.0
 30
0.0
  9
$UCSORGBOTTOM
 10
0.0
 20
0.0
 30
0.0
  9
$UCSORGLEFT
 10
0.0
 20
0.0
 30
0.0
  9
$UCSORGRIGHT
 10
0.0
 20
0.0
 30
0.0
  9
$UCSORGFRONT
 10
0.0
 20
0.0
 30
0.0
  9
$UCSORGBACK
 10
0.0
 20
0.0
 30
0.0
  9
$PUCSBASE
  2

  9
$PUCSNAME
  2

  9
$PUCSORG
 10
0.0
 20
0.0
 30
0.0
  9
$PUCSXDIR
 10
1.0
 20
0.0
 30
0.0
  9
$PUCSYDIR
 10
0.0
 20
1.0
 30
0.0
  9
$PUCSORTHOREF
  2

  9
$PUCSORTHOVIEW
 70
0
  9
$PUCSORGTOP
 10
0.0
 20
0.0
 30
0.0
  9
$PUCSORGBOTTOM
 10
0.0
 20
0.0
 30
0.0
  9
$PUCSORGLEFT
 10
0.0
 20
0.0
 30
0.0
  9
$PUCSORGRIGHT
 10
0.0
 20
0.0
 30
0.0
  9
$PUCSORGFRONT
 10
0.0
 20
0.0
 30
0.0
  9
$PUCSORGBACK
 10
0.0
 20
0.0
 30
0.0
  9
$USERI1
 70
0
  9
$USERI2
 70
0
  9
$USERI3
 70
0
  9
$USERI4
 70
0
  9
$USERI5
 70
0
  9
$USERR1
 40
0.0
  9
$USERR2
 40
0.0
  9
$USERR3
 40
0.0
  9
$USERR4
 40
0.0
  9
$USERR5
 40
0.0
  9
$WORLDVIEW
 70
1
  9
$SHADEDGE
 70
3
  9
$SHADEDIF
 70
70
  9
$TILEMODE
 70
1
  9
$MAXACTVP
 70
64
  9
$PINSBASE
 10
0.0
 20
0.0
 30
0.0
  9
$PLIMCHECK
 70
0
  9
$PEXTMIN
 10
1e+20
 20
1e+20
 30
1e+20
  9
$PEXTMAX
 10
-1e+20
 20
-1e+20
 30
-1e+20
  9
$PLIMMIN
 10
0.0
 20
0.0
  9
$PLIMMAX
 10
420.0
 20
297.0
  9
$UNITMODE
 70
0
  9
$VISRETAIN
 70
1
  9
$PLINEGEN
 70
0
  9
$PSLTSCALE
 70
1
  9
$TREEDEPTH
 70
3020
  9
$CMLSTYLE
  2
Standard
  9
$CMLJUST
 70
0
  9
$CMLSCALE
 40
20.0
  9
$PROXYGRAPHICS
 70
1
  9
$MEASUREMENT
 70
1
  9
$CELWEIGHT
370
-1
  9
$ENDCAPS
280
0
  9
$JOINSTYLE
280
0
  9
$LWDISPLAY
290
0
  9
$INSUNITS
 70
6
  9
$HYPERLINKBASE
  1

  9
$STYLESHEET
  1

  9
$XEDIT
290
1
  9
$CEPSNTYPE
380
0
  9
$PSTYLEMODE
290
1
  9
$FINGERPRINTGUID
  2
{4EF58B6C-A300-455B-A8D5-CC73FC489E19}
  9
$VERSIONGUID
  2
{CE01463F-1473-453E-BB93-042296F9C9AC}
  9
$EXTNAMES
290
1
  9
$PSVPSCALE
 40
0.0
  9
$OLESTARTUP
290
0
  9
$SORTENTS
280
127
  9
$INDEXCTL
280
0
  9
$HIDETEXT
280
1
  9
$XCLIPFRAME
280
1
  9
$HALOGAP
280
0
  9
$OBSCOLOR
 70
257
  9
$OBSLTYPE
280
0
  9
$INTERSECTIONDISPLAY
280
0
  9
$INTERSECTIONCOLOR
 70
257
  9
$DIMASSOC
280
2
  9
$PROJECTNAME
  1

  9
$CAMERADISPLAY
290
0
  9
$LENSLENGTH
 40
50.0
  9
$CAMERAHEIGHT
 40
0.0
  9
$STEPSPERSEC
 40
24.0
  9
$STEPSIZE
 40
100.0
  9
$3DDWFPREC
 40
2.0
  9
$PSOLWIDTH
 40
0.005
  9
$PSOLHEIGHT
 40
0.08
  9
$LOFTANG1
 40
1.570796326795
  9
$LOFTANG2
 40
1.570796326795
  9
$LOFTMAG1
 40
0.0
  9
$LOFTMAG2
 40
0.0
  9
$LOFTPARAM
 70
7
  9
$LOFTNORMALS
280
1
  9
$LATITUDE
 40
37.795
  9
$LONGITUDE
 40
-122.394
  9
$NORTHDIRECTION
 40
0.0
  9
$TIMEZONE
 70
-8000
  9
$LIGHTGLYPHDISPLAY
280
1
  9
$TILEMODELIGHTSYNCH
280
1
  9
$CMATERIAL
347
20
  9
$SOLIDHIST
280
0
  9
$SHOWHIST
280
1
  9
$DWFFRAME
280
2
  9
$DGNFRAME
280
2
  9
$REALWORLDSCALE
290
1
  9
$INTERFERECOLOR
 62
256
  9
$CSHADOW
280
0
  9
$SHADOWPLANELOCATION
 40
0.0
  0
ENDSEC
  0
SECTION
  2
CLASSES
  0
CLASS
  1
ACDBDICTIONARYWDFLT
  2
AcDbDictionaryWithDefault
  3
ObjectDBX Classes
 90
0
 91
0
280
0
281
0
  0
CLASS
  1
SUN
  2
AcDbSun
  3
SCENEOE
 90
1153
 91
0
280
0
281
0
  0
CLASS
  1
VISUALSTYLE
  2
AcDbVisualStyle
  3
ObjectDBX Classes
 90
4095
 91
0
280
0
281
0
  0
CLASS
  1
MATERIAL
  2
AcDbMaterial
  3
ObjectDBX Classes
 90
1153
 91
0
280
0
281
0
  0
CLASS
  1
SCALE
  2
AcDbScale
  3
ObjectDBX Classes
 90
1153
 91
0
280
0
281
0
  0
CLASS
  1
TABLESTYLE
  2
AcDbTableStyle
  3
ObjectDBX Classes
 90
4095
 91
0
280
0
281
0
  0
CLASS
  1
MLEADERSTYLE
  2
AcDbMLeaderStyle
  3
ACDB_MLEADERSTYLE_CLASS
 90
4095
 91
0
280
0
281
0
  0
CLASS
  1
DICTIONARYVAR
  2
AcDbDictionaryVar
  3
ObjectDBX Classes
 90
0
 91
0
280
0
281
0
  0
CLASS
  1
CELLSTYLEMAP
  2
AcDbCellStyleMap
  3
ObjectDBX Classes
 90
1152
 91
0
280
0
281
0
  0
CLASS
  1
MENTALRAYRENDERSETTINGS
  2
AcDbMentalRayRenderSettings
  3
SCENEOE
 90
1024
 91
0
280
0
281
0
  0
CLASS
  1
ACDBDETAILVIEWSTYLE
  2
AcDbDetailViewStyle
  3
ObjectDBX Classes
 90
1025
 91
0
280
0
281
0
  0
CLASS
  1
ACDBSECTIONVIEWSTYLE
  2
AcDbSectionViewStyle
  3
ObjectDBX Classes
 90
1025
 91
0
280
0
281
0
  0
CLASS
  1
RASTERVARIABLES
  2
AcDbRasterVariables
  3
ISM
 90
0
 91
0
280
0
281
0
  0
CLASS
  1
ACDBPLACEHOLDER
  2
AcDbPlaceHolder
  3
ObjectDBX Classes
 90
0
 91
0
280
0
281
0
  0
CLASS
  1
LAYOUT
  2
AcDbLayout
  3
ObjectDBX Classes
 90
0
 91
0
280
0
281
0
  0
ENDSEC
  0
SECTION
  2
TABLES
  0
TABLE
  2
VPORT
  5
8
330
0
100
AcDbSymbolTable
 70
1
  0
VPORT
  5
23
330
8
100
AcDbSymbolTableRecord
100
AcDbViewportTableRecord
  2
*Active
 70
0
 10
0.0
 20
0.0
 11
1.0
 21
1.0
 12
0.0
 22
0.0
 13
0.0
 23
0.0
 14
0.5
 24
0.5
 15
0.5
 25
0.5
 16
0.0
 26
0.0
 36
1.0
 17
0.0
 27
0.0
 37
0.0
 40
1000.0
 41
1.34
 42
50.0
 43
0.0
 44
0.0
 50
0.0
 51
0.0
 71
0
 72
1000
 73
1
 74
3
 75
0
 76
0
 77
0
 78
0
281
0
 65
0
146
0.0
  0
ENDTAB
  0
TABLE
  2
LTYPE
  5
2
330
0
100
AcDbSymbolTable
 70
3
  0
LTYPE
  5
24
330
2
100
AcDbSymbolTableRecord
100
AcDbLinetypeTableRecord
  2
ByBlock
 70
0
  3

 72
65
 73
0
 40
0.0
  0
LTYPE
  5
25
330
2
100
AcDbSymbolTableRecord
100
AcDbLinetypeTableRecord
  2
ByLayer
 70
0
  3

 72
65
 73
0
 40
0.0
  0
LTYPE
  5
26
330
2
100
AcDbSymbolTableRecord
100
AcDbLinetypeTableRecord
  2
Continuous
 70
0
  3

 72
65
 73
0
 40
0.0
  0
ENDTAB
  0
TABLE
  2
LAYER
  5
1
330
0
100
AcDbSymbolTable
 70
2
  0
LAYER
  5
27
330
1
100
AcDbSymbolTableRecord
100
AcDbLayerTableRecord
  2
0
 70
0
 62
7
  6
Continuous
370
-3
390
13
347
21
  0
LAYER
  5
28
330
1
100
AcDbSymbolTableRecord
100
AcDbLayerTableRecord
  2
Defpoints
 70
0
 62
7
  6
Continuous
290
0
370
-3
390
13
347
21
  0
ENDTAB
  0
TABLE
  2
STYLE
  5
5
330
0
100
AcDbSymbolTable
 70
1
  0
STYLE
  5
29
330
5
100
AcDbSymbolTableRecord
100
AcDbTextStyleTableRecord
  2
Standard
 70
0
 40
0.0
 41
1.0
 50
0.0
 71
0
 42
2.5
  3
txt
  4

  0
ENDTAB
  0
TABLE
  2
VIEW
  5
7
330
0
100
AcDbSymbolTable
 70
0
  0
ENDTAB
  0
TABLE
  2
UCS
  5
6
330
0
100
AcDbSymbolTable
 70
0
  0
ENDTAB
  0
TABLE
  2
APPID
  5
3
330
0
100
AcDbSymbolTable
 70
3
  0
APPID
  5
2A
330
3
100
AcDbSymbolTableRecord
100
AcDbRegAppTableRecord
  2
ACAD
 70
0
  0
APPID
  5
31
330
3
100
AcDbSymbolTableRecord
100
AcDbRegAppTableRecord
  2
HATCHBACKGROUNDCOLOR
 70
0
  0
APPID
  5
32
330
3
100
AcDbSymbolTableRecord
100
AcDbRegAppTableRecord
  2
EZDXF
 70
0
  0
ENDTAB
  0
TABLE
  2
DIMSTYLE
  5
4
330
0
100
AcDbSymbolTable
 70
1
100
AcDbDimStyleTable
  0
DIMSTYLE
105
2B
330
4
100
AcDbSymbolTableRecord
100
AcDbDimStyleTableRecord
  2
Standard
 70
0
 40
1.0
 41
2.5
 42
0.625
 43
3.75
 44
1.25
 45
0.0
 46
0.0
 47
0.0
 48
0.0
 49
2.5
140
2.5
141
2.5
142
0.0
143
0.03937007874
144
1.0
145
0.0
146
1.0
147
0.625
148
0.0
 69
0
 70
0
 71
0
 72
0
 73
0
 74
0
 75
0
 76
0
 77
1
 78
8
 79
3
170
0
171
3
172
1
173
0
174
0
175
0
176
0
177
0
178
0
179
2
271
2
272
2
273
2
274
3
275
0
276
0
277
2
278
44
279
0
280
0
281
0
282
0
283
0
284
8
285
0
286
0
288
0
289
3
290
0
371
-2
372
-2
  0
ENDTAB
  0
TABLE
  2
BLOCK_RECORD
  5
9
330
0
100
AcDbSymbolTable
 70
2
  0
BLOCK_RECORD
  5
17
330
9
100
AcDbSymbolTableRecord
100
AcDbBlockTableRecord
  2
*Model_Space
340
1A
 70
0
280
1
281
0
  0
BLOCK_RECORD
  5
1B
330
9
100
AcDbSymbolTableRecord
100
AcDbBlockTableRecord
  2
*Paper_Space
340
1E
 70
0
280
1
281
0
  0
ENDTAB
  0
ENDSEC
  0
SECTION
  2
BLOCKS
  0
BLOCK
  5
18
330
17
100
AcDbEntity
  8
0
100
AcDbBlockBegin
  2
*Model_Space
 70
0
 10
0.0
 20
0.0
 30
0.0
  3
*Model_Space
  1

  0
ENDBLK
  5
19
330
17
100
AcDbEntity
  8
0
100
AcDbBlockEnd
  0
BLOCK
  5
1C
330
1B
100
AcDbEntity
  8
0
100
AcDbBlockBegin
  2
*Paper_Space
 70
0
 10
0.0
 20
0.0
 30
0.0
  3
*Paper_Space
  1

  0
ENDBLK
  5
1D
330
1B
100
AcDbEntity
  8
0
100
AcDbBlockEnd
  0
ENDSEC
  0
SECTION
  2
ENTITIES
  0
SPLINE
  5
2F
330
17
100
AcDbEntity
  8
0
100
AcDbSpline
 70
0
 71
3
 72
0
 73
0
 74
239
 11
249.39101256495604
 21
56.61242240298498
 31
0.0
 11
249.34923853758016
 21
56.597390150502505
 31
0.0
 11
249.223940307476
 21
56.55232179600969
 31
0.0
 11
249.01518944395414
 21
56.47730245102403
 31
0.0
 11
248.7231052730231
 21
56.37247364433492
 31
0.0
 11
248.34785494204468
 21
56.23803283900658
 31
0.0
 11
247.8896535081088
 21
56.07423276137787
 31
0.0
 11
247.34876404802253
 21
55.88138054718973
 31
0.0
 11
246.72549778726275
 21
55.6598367113411
 31
0.0
 11
246.02021424473594
 21
55.41001394907973
 31
0.0
 11
245.23332138972816
 21
55.132375777651504
 31
0.0
 11
244.36527580702625
 21
54.82743502855952
 31
0.0
 11
243.41658286584408
 21
54.495752201598464
 31
0.0
 11
242.38779688790947
 21
54.13793369272959
 31
0.0
 11
241.27952130985736
 21
53.75462990863126
 31
0.0
 11
240.0924088349315
 21
53.34653328139427
 31
0.0
 11
238.82716156893395
 21
52.91437619732148
 31
0.0
 11
237.48453113536445
 21
52.458928854135145
 31
0.0
 11
236.06531876477132
 21
51.98099706108576
 31
0.0
 11
234.57037535348093
 21
51.481419996493756
 31
0.0
 11
233.0006014870887
 21
50.961067937140086
 31
0.0
 11
231.35694742436866
 21
50.42083997365229
 31
0.0
 11
229.64041303759203
 21
49.86166172561653
 31
0.0
 11
227.85204770562657
 21
49.28448306958431
 31
0.0
 11
225.9929501566154
 21
48.69027589244487
 31
0.0
 11
224.06426825749153
 21
48.08003188180628
 31
0.0
 11
222.06719874807627
 21
47.45476036408344
 31
0.0
 11
220.00298691800813
 21
46.815486199935314
 31
0.0
 11
217.87292622526905
 21
46.16324774554646
 31
0.0
 11
215.6783578555828
 21
45.49909488701597
 31
0.0
 11
213.4206702224674
 21
44.82408715382133
 31
0.0
 11
211.10129840820656
 21
44.13929191597651
 31
0.0
 11
208.72172354646625
 21
43.44578266812369
 31
0.0
 11
206.28347214770392
 21
42.74463740239895
 31
0.0
 11
203.78811536890186
 21
42.03693707051626
 31
0.0
 11
201.2372682294899
 21
41.32376413413576
 31
0.0
 11
198.6325887756034
 21
40.60620120123931
 31
0.0
 11
195.97577719504548
 21
39.88532974494899
 31
0.0
 11
193.26857488548413
 21
39.162228900005424
 31
0.0
 11
190.5127634785148
 21
38.43797433099182
 31
0.0
 11
187.71016382225488
 21
37.71363716536131
 31
0.0
 11
184.8626349251073
 21
36.99028298341181
 31
0.0
 11
181.97207286324533
 21
36.26897085656991
 31
0.0
 11
179.04040965422155
 21
35.550752424703376
 31
0.0
 11
176.06961209890494
 21
34.83667100268985
 31
0.0
 11
173.06168059370188
 21
34.12776070613682
 31
0.0
 11
170.01864791472457
 21
33.42504558598033
 31
0.0
 11
166.942577975248
 21
32.72953876169089
 31
0.0
 11
163.8355645574411
 21
32.04224154298744
 31
0.0
 11
160.69973001899072
 21
31.364142530303205
 31
0.0
 11
157.53722397485606
 21
30.69621668475854
 31
0.0
 11
154.35022195401436
 21
30.039424359071806
 31
0.0
 11
151.14092403068798
 21
29.394710281670605
 31
0.0
 11
147.91155342919623
 21
28.763002487247086
 31
0.0
 11
144.6643551012515
 21
28.1452111881178
 31
0.0
 11
141.40159427423848
 21
27.54222758199095
 31
0.0
 11
138.1255549687734
 21
26.95492259309485
 31
0.0
 11
134.83853848365524
 21
26.38414554506607
 31
0.0
 11
131.54286184619278
 21
25.83072276551576
 31
0.0
 11
128.24085622582572
 21
25.295456123769256
 31
0.0
 11
124.9348653089629
 21
24.77912150488659
 31
0.0
 11
121.62724363303235
 21
24.282467224700504
 31
0.0
 11
118.32035487788549
 21
23.806212392231274
 31
0.0
 11
115.016570112913
 21
23.35104522743358
 31
0.0
 11
111.71826599851855
 21
22.91762134377786
 31
0.0
 11
108.42782294095059
 21
22.506562006646046
 31
0.0
 11
105.14762319991124
 21
22.118452379908675
 31
0.0
 11
101.88004894883613
 21
21.753839774327282
 31
0.0
 11
98.5816043153634
 21
21.41462356377902
 31
0.0
 11
95.29269671792761
 21
21.1111867381533
 31
0.0
 11
92.0225176652723
 21
20.844295428317245
 31
0.0
 11
88.77365837001655
 21
20.614077343827176
 31
0.0
 11
85.54870517209561
 21
20.420580700915934
 31
0.0
 11
82.35023618098535
 21
20.26377372229949
 31
0.0
 11
79.18081784190984
 21
20.143544379033187
 31
0.0
 11
76.04300143984858
 21
20.059700389890676
 31
0.0
 11
72.93931955636393
 21
20.011969492609232
 31
0.0
 11
69.87228249531381
 21
20.0
 31
0.0
 11
66.84437469438133
 21
20.02336165237467
 31
0.0
 11
63.85805114002434
 21
20.08154677600729
 31
0.0
 11
60.9157338039101
 21
20.17397175544864
 31
0.0
 11
58.01980811914324
 21
20.299978825462276
 31
0.0
 11
55.17261951461164
 21
20.458838186176866
 31
0.0
 11
52.37647002556387
 21
20.649750442772383
 31
0.0
 11
49.63361499809214
 21
20.871849368662353
 31
0.0
 11
46.94625990453186
 21
21.124204988724323
 31
0.0
 11
44.31655728591248
 21
21.405826976692538
 31
0.0
 11
41.74660383651281
 21
21.71566835838316
 31
0.0
 11
39.2384376443056
 21
22.052629509999246
 31
0.0
 11
36.794035599635976
 21
22.415562438382885
 31
0.0
 11
34.41531098288819
 21
22.803275327767736
 31
0.0
 11
32.10411124017558
 21
23.214537335359637
 31
0.0
 11
29.86221595426604
 21
23.648083615953627
 31
0.0
 11
27.691335016052967
 21
24.102620553804655
 31
0.0
 11
25.593106999927087
 21
24.576831178119846
 31
0.0
 11
23.569097744425356
 21
25.0693807368508
 31
0.0
 11
21.62079913755424
 21
25.578922401946905
 31
0.0
 11
19.749628104236443
 21
26.104103077897022
 31
0.0
 11
17.956925791434514
 21
26.643569284247917
 31
0.0
 11
16.24395694469151
 21
27.19597308185004
 31
0.0
 11
14.611909468117734
 21
27.75997801185305
 31
0.0
 11
13.061894158269743
 21
28.334265015956795
 31
0.0
 11
11.594944600929553
 21
28.917538306124122
 31
0.0
 11
10.212017218520982
 21
29.50853115187786
 31
0.0
 11
8.913991454807576
 21
30.106011553438314
 31
0.0
 11
7.701670082620123
 21
30.708787769304855
 31
0.0
 11
6.575779619668477
 21
31.315713667444705
 31
0.0
 11
5.536970837012527
 21
31.925693870017273
 31
0.0
 11
4.585819344504467
 21
32.53768866252841
 31
0.0
 11
3.7228262374711734
 21
33.150718639468465
 31
0.0
 11
2.948418789081277
 21
33.76386905983208
 31
0.0
 11
2.2629511732324064
 21
34.37629388743764
 31
0.0
 11
1.6667052033933123
 21
34.987219492649785
 31
0.0
 11
1.1598910736351973
 21
35.59594799394781
 31
0.0
 11
0.7426480890738716
 21
36.201860219764455
 31
0.0
 11
0.41504537410579934
 21
36.80441827313128
 31
0.0
 11
0.17708254814082697
 21
37.403167683894424
 31
0.0
 11
0.028690359993494556
 21
37.997739135594514
 31
0.0
 11
-0.03026872632562356
 21
38.58784975652238
 31
0.0
 11
0.0
 21
39.173303966953654
 31
0.0
 11
0.11838614832481703
 21
39.74745829999898
 31
0.0
 11
0.3237147425631368
 21
40.30372256810652
 31
0.0
 11
0.6155867910708106
 21
40.8420608658833
 31
0.0
 11
0.9935420998946621
 21
41.362455900369014
 31
0.0
 11
1.4570600733709538
 21
41.86490902219789
 31
0.0
 11
2.005560676065625
 21
42.34944037741268
 31
0.0
 11
2.6384055500416066
 21
42.816089175183315
 31
0.0
 11
3.354899279637671
 21
43.264914065103575
 31
0.0
 11
4.154290794242973
 21
43.69599361622267
 31
0.0
 11
5.035774897971424
 21
44.10942688852548
 31
0.0
 11
5.998493913701729
 21
44.505334086217395
 31
0.0
 11
7.041539427669979
 21
44.883857280909666
 31
0.0
 11
8.163954119698605
 21
45.245161191648606
 31
0.0
 11
9.364733663233277
 21
45.58943400769838
 31
0.0
 11
10.64282867864817
 21
45.91688823908141
 31
0.0
 11
11.99714672278064
 21
46.22776157911166
 31
0.0
 11
13.426554297374805
 21
46.52231776253298
 31
0.0
 11
14.92987885905319
 21
46.80084740240379
 31
0.0
 11
16.50591081359799
 21
47.06366878855768
 31
0.0
 11
18.153405477706887
 21
47.31112863032187
 31
0.0
 11
19.87108499198656
 21
47.543602726196795
 31
0.0
 11
21.657640169754817
 21
47.761496543392525
 31
0.0
 11
23.511732267225984
 21
47.965245690484124
 31
0.0
 11
25.431994661844353
 21
48.15531626698834
 31
0.0
 11
27.41703442688732
 21
48.33220507437729
 31
0.0
 11
29.465433791969733
 21
48.4964396739293
 31
0.0
 11
31.575751480718772
 21
48.64857827786807
 31
0.0
 11
33.74652391863744
 21
48.78920946145437
 31
0.0
 11
35.97626630600529
 21
48.918951685061465
 31
0.0
 11
38.26347355255709
 21
49.03845261677863
 31
0.0
 11
40.60662107260349
 21
49.148388247735255
 31
0.0
 11
43.004165441188874
 21
49.249461794109365
 31
0.0
 11
45.4545449137905
 21
49.34240238166533
 31
0.0
 11
47.95617981392484
 21
49.42796351063998
 31
0.0
 11
50.50747279481517
 21
49.50692130084808
 31
0.0
 11
53.1068089829611
 21
49.58007251898816
 31
0.0
 11
55.752556013016125
 21
49.64823239227825
 31
0.0
 11
58.44306396479584
 21
49.71223221471721
 31
0.0
 11
61.17666521449252
 21
49.77291675442927
 31
0.0
 11
63.95167421323821
 21
49.83114147268335
 31
0.0
 11
66.76638720702869
 21
49.8877695672624
 31
0.0
 11
69.6190819126786
 21
49.94366885486674
 31
0.0
 11
72.50801716491837
 21
49.999708509146146
 31
0.0
 11
75.43143254996052
 21
50.05675567274423
 31
0.0
 11
78.38754804085454
 21
50.11567196338338
 31
0.0
 11
81.37456364972118
 21
50.17730989549706
 31
0.0
 11
84.39065911151125
 21
50.24250924020848
 31
0.0
 11
87.43399361328558
 21
50.31209334754234
 31
0.0
 11
90.50270558217092
 21
50.38686545562209
 31
0.0
 11
93.59491254413132
 21
50.46760501223653
 31
0.0
 11
96.70871106452402
 21
50.55506403454355
 31
0.0
 11
99.84878859452289
 21
50.650335537671964
 31
0.0
 11
103.05201229225672
 21
50.74995911703112
 31
0.0
 11
106.27097160549037
 21
50.84700279678085
 31
0.0
 11
109.50350268470797
 21
50.94191392996039
 31
0.0
 11
112.74742787357557
 21
51.035124545409246
 31
0.0
 11
116.00055698598041
 21
51.12704914689412
 31
0.0
 11
119.26068863019351
 21
51.218082657112284
 31
0.0
 11
122.52561157772318
 21
51.30859852167113
 31
0.0
 11
125.79310617397071
 21
51.398946986455144
 31
0.0
 11
129.0609457874101
 21
51.48945355999001
 31
0.0
 11
132.326898293683
 21
51.580417670518685
 31
0.0
 11
135.58872759074322
 21
51.672111525539435
 31
0.0
 11
138.84419514099537
 21
51.76477917954206
 31
0.0
 11
142.09106153626155
 21
51.85863581363889
 31
0.0
 11
145.32708808136664
 21
51.95386722874461
 31
0.0
 11
148.55003839216448
 21
52.0506295519358
 31
0.0
 11
151.7576800039282
 21
52.14904915363854
 31
0.0
 11
154.94778598618956
 21
52.249222771373084
 31
0.0
 11
158.11813656034136
 21
52.351217833947004
 31
0.0
 11
161.26652071658825
 21
52.45507297825238
 31
0.0
 11
164.39073782716034
 21
52.56079874920519
 31
0.0
 11
167.4885992530616
 21
52.66837847188271
 31
0.0
 11
170.5579299420157
 21
52.77776928357976
 31
0.0
 11
173.5965700156843
 21
52.888903312331166
 31
0.0
 11
176.60237634465045
 21
53.001688987443885
 31
0.0
 11
179.57322411008337
 21
53.116012466756025
 31
0.0
 11
182.50700835141345
 21
53.231739164698375
 31
0.0
 11
185.40164549974105
 21
53.34871536477712
 31
0.0
 11
188.25507489707218
 21
53.46676989982964
 31
0.0
 11
191.0652603018086
 21
53.58571588332231
 31
0.0
 11
193.83019138121176
 21
53.70535247506122
 31
0.0
 11
196.54788519180497
 21
53.82546666496543
 31
0.0
 11
199.21638764886697
 21
53.945835059000906
 31
0.0
 11
201.83377498630526
 21
54.06622565198321
 31
0.0
 11
204.39815520826508
 21
54.186399572716375
 31
0.0
 11
206.90766953384025
 21
54.306112787831786
 31
0.0
 11
209.36049383619584
 21
54.42511775171109
 31
0.0
 11
211.75484007729239
 21
54.54316499100544
 31
0.0
 11
214.08895773922353
 21
54.660004613483764
 31
0.0
 11
216.3611352529379
 21
54.775387732239096
 31
0.0
 11
218.569701424826
 21
54.889067797636514
 31
0.0
 11
220.71302686131236
 21
55.00080183078144
 31
0.0
 11
222.7895253912079
 21
55.11035155370503
 31
0.0
 11
224.7976554851632
 21
55.217484412887316
 31
0.0
 11
226.73592167111428
 21
55.32197449415065
 31
0.0
 11
228.60287594415223
 21
55.42360332833853
 31
0.0
 11
230.3971191687704
 21
55.522160588534426
 31
0.0
 11
232.117302470971
 21
55.61744468085254
 31
0.0
 11
233.76212861724403
 21
55.70926323203754
 31
0.0
 11
235.3303533769819
 21
55.7974334782273
 31
0.0
 11
236.82078686447144
 21
55.88178256025033
 31
0.0
 11
238.23229485621397
 21
55.96214773173905
 31
0.0
 11
239.563800078978
 21
56.03837648713005
 31
0.0
 11
240.81428346369316
 21
56.110326617287726
 31
0.0
 11
241.98278536005134
 21
56.177866201021544
 31
0.0
 11
243.06840670650254
 21
56.2408735411658
 31
0.0
 11
244.07031015021906
 21
56.29923705415155
 31
0.0
 11
244.98772111155614
 21
56.352855122123756
 31
0.0
 11
245.81992878756586
 21
56.40163591664164
 31
0.0
 11
246.56628708921917
 21
56.445497202852096
 31
0.0
 11
247.22621550716272
 21
56.48436613274593
 31
0.0
 11
247.79919990108013
 21
56.51817903570381
 31
0.0
 11
248.28479320803825
 21
56.546881214016175
 31
0.0
 11
248.68261606557306
 21
56.57042675043318
 31
0.0
 11
248.99235734570658
 21
56.58877833406872
 31
0.0
 11
249.2137745965741
 21
56.60190711016779
 31
0.0
 11
249.34669438887738
 21
56.60979255834987
 31
0.0
 11
249.39101256495604
 21
56.61242240298498
 31
0.0
  0
LWPOLYLINE
  5
30
330
17
100
AcDbEntity
  8
0
100
AcDbPolyline
 90
4
 70
1
 10
-1250.0
 20
0.0
 10
2750.0
 20
0.0
 10
2750.0
 20
1500.0
 10
-1250.0
 20
1500.0
  0
ENDSEC
  0
SECTION
  2
OBJECTS
  0
DICTIONARY
  5
A
330
0
100
AcDbDictionary
281
1
  3
ACAD_COLOR
350
B
  3
ACAD_GROUP
350
C
  3
ACAD_LAYOUT
350
D
  3
ACAD_MATERIAL
350
E
  3
ACAD_MLEADERSTYLE
350
F
  3
ACAD_MLINESTYLE
350
10
  3
ACAD_PLOTSETTINGS
350
11
  3
ACAD_PLOTSTYLENAME
350
12
  3
ACAD_SCALELIST
350
14
  3
ACAD_TABLESTYLE
350
15
  3
ACAD_VISUALSTYLE
350
16
  3
EZDXF_META
350
2D
  0
DICTIONARY
  5
B
330
A
100
AcDbDictionary
281
1
  0
DICTIONARY
  5
C
330
A
100
AcDbDictionary
281
1
  0
DICTIONARY
  5
D
330
A
100
AcDbDictionary
281
1
  3
Model
350
1A
  3
Layout1
350
1E
  0
DICTIONARY
  5
E
330
A
100
AcDbDictionary
281
1
  3
ByBlock
350
1F
  3
ByLayer
350
20
  3
Global
350
21
  0
DICTIONARY
  5
F
330
A
100
AcDbDictionary
281
1
  3
Standard
350
2C
  0
DICTIONARY
  5
10
330
A
100
AcDbDictionary
281
1
  3
Standard
350
22
  0
DICTIONARY
  5
11
330
A
100
AcDbDictionary
281
1
  0
ACDBDICTIONARYWDFLT
  5
12
330
A
100
AcDbDictionary
281
1
  3
Normal
350
13
100
AcDbDictionaryWithDefault
340
13
  0
ACDBPLACEHOLDER
  5
13
330
12
  0
DICTIONARY
  5
14
330
A
100
AcDbDictionary
281
1
  0
DICTIONARY
  5
15
330
A
100
AcDbDictionary
281
1
  0
DICTIONARY
  5
16
330
A
100
AcDbDictionary
281
1
  0
LAYOUT
  5
1A
330
D
100
AcDbPlotSettings
  1

  4
A3
  6

 40
7.5
 41
20.0
 42
7.5
 43
20.0
 44
420.0
 45
297.0
 46
0.0
 47
0.0
 48
0.0
 49
0.0
140
0.0
141
0.0
142
1.0
143
1.0
 70
1024
 72
1
 73
0
 74
5
  7

 75
16
 76
0
 77
2
 78
300
147
1.0
148
0.0
149
0.0
100
AcDbLayout
  1
Model
 70
1
 71
0
 10
0.0
 20
0.0
 11
420.0
 21
297.0
 12
0.0
 22
0.0
 32
0.0
 14
1e+20
 24
1e+20
 34
1e+20
 15
-1e+20
 25
-1e+20
 35
-1e+20
146
0.0
 13
0.0
 23
0.0
 33
0.0
 16
1.0
 26
0.0
 36
0.0
 17
0.0
 27
1.0
 37
0.0
 76
1
330
17
  0
LAYOUT
  5
1E
330
D
100
AcDbPlotSettings
  1

  4
A3
  6

 40
7.5
 41
20.0
 42
7.5
 43
20.0
 44
420.0
 45
297.0
 46
0.0
 47
0.0
 48
0.0
 49
0.0
140
0.0
141
0.0
142
1.0
143
1.0
 70
0
 72
1
 73
0
 74
5
  7

 75
16
 76
0
 77
2
 78
300
147
1.0
148
0.0
149
0.0
100
AcDbLayout
  1
Layout1
 70
1
 71
1
 10
0.0
 20
0.0
 11
420.0
 21
297.0
 12
0.0
 22
0.0
 32
0.0
 14
1e+20
 24
1e+20
 34
1e+20
 15
-1e+20
 25
-1e+20
 35
-1e+20
146
0.0
 13
0.0
 23
0.0
 33
0.0
 16
1.0
 26
0.0
 36
0.0
 17
0.0
 27
1.0
 37
0.0
 76
1
330
1B
  0
MATERIAL
  5
1F
102
{ACAD_REACTORS
330
E
102
}
330
E
100
AcDbMaterial
  1
ByBlock
  2

 70
0
 40
1.0
 71
1
 41
1.0
 91
-1023410177
 42
1.0
 72
1
  3

 73
1
 74
1
 75
1
 44
0.5
 73
0
 45
1.0
 46
1.0
 77
1
  4

 78
1
 79
1
170
1
 48
1.0
171
1
  6

172
1
173
1
174
1
140
1.0
141
1.0
175
1
  7

176
1
177
1
178
1
143
1.0
179
1
  8

270
1
271
1
272
1
145
1.0
146
1.0
273
1
  9

274
1
275
1
276
1
 42
1.0
 72
1
  3

 73
1
 74
1
 75
1
 94
63
  0
MATERIAL
  5
20
102
{ACAD_REACTORS
330
E
102
}
330
E
100
AcDbMaterial
  1
ByLayer
  2

 70
0
 40
1.0
 71
1
 41
1.0
 91
-1023410177
 42
1.0
 72
1
  3

 73
1
 74
1
 75
1
 44
0.5
 73
0
 45
1.0
 46
1.0
 77
1
  4

 78
1
 79
1
170
1
 48
1.0
171
1
  6

172
1
173
1
174
1
140
1.0
141
1.0
175
1
  7

176
1
177
1
178
1
143
1.0
179
1
  8

270
1
271
1
272
1
145
1.0
146
1.0
273
1
  9

274
1
275
1
276
1
 42
1.0
 72
1
  3

 73
1
 74
1
 75
1
 94
63
  0
MATERIAL
  5
21
102
{ACAD_REACTORS
330
E
102
}
330
E
100
AcDbMaterial
  1
Global
  2

 70
0
 40
1.0
 71
1
 41
1.0
 91
-1023410177
 42
1.0
 72
1
  3

 73
1
 74
1
 75
1
 44
0.5
 73
0
 45
1.0
 46
1.0
 77
1
  4

 78
1
 79
1
170
1
 48
1.0
171
1
  6

172
1
173
1
174
1
140
1.0
141
1.0
175
1
  7

176
1
177
1
178
1
143
1.0
179
1
  8

270
1
271
1
272
1
145
1.0
146
1.0
273
1
  9

274
1
275
1
276
1
 42
1.0
 72
1
  3

 73
1
 74
1
 75
1
 94
63
  0
MLINESTYLE
  5
22
102
{ACAD_REACTORS
330
10
102
}
330
10
100
AcDbMlineStyle
  2
Standard
 70
0
  3

 62
256
 51
90.0
 52
90.0
 71
2
 49
0.5
 62
256
  6
BYLAYER
 49
-0.5
 62
256
  6
BYLAYER
  0
MLEADERSTYLE
  5
2C
102
{ACAD_REACTORS
330
F
102
}
330
F
100
AcDbMLeaderStyle
179
2
170
2
171
1
172
0
 90
2
 40
0.0
 41
0.0
173
1
 91
-1056964608
 92
-2
290
1
 42
2.0
291
1
 43
8.0
  3
Standard
 44
4.0
300

342
29
174
1
175
1
176
0
178
1
 93
-1056964608
 45
4.0
292
0
297
0
 46
4.0
 94
-1056964608
 47
1.0
 49
1.0
140
1.0
294
1
141
0.0
177
0
142
1.0
295
0
296
0
143
3.75
271
0
272
9
273
9
  0
DICTIONARY
  5
2D
330
A
100
AcDbDictionary
280
1
281
1
  3
CREATED_BY_EZDXF
350
2E
  3
WRITTEN_BY_EZDXF
350
33
  0
DICTIONARYVAR
  5
2E
330
2D
100
DictionaryVariables
280
0
  1
1.4.4 @ 2026-09-29T23:14:09.987553+00:00
  0
DICTIONARYVAR
  5
33
330
2D
100
DictionaryVariables
280
0
  1
1.4.4 @ 2026-09-29T23:14:09.988247+00:00
  0
ENDSEC
  0
EOF
